<svg width="1740" height="48" viewBox="0 0 1740 48" fill="none" xmlns="http://www.w3.org/2000/svg">
<path d="M1729.33 26.9328C1725.87 26.8305 1721.67 26.1192 1717.83 25.9802C1708.17 25.6182 1697.2 25.8414 1687.38 25.57C1674.64 25.2118 1661.5 24.3017 1648.74 24.1817C1614.68 23.8686 1579.91 26.0396 1546.91 26.2835C1524.53 26.4556 1503.01 27.5729 1481.28 27.8888C1423.3 28.7313 1364.92 27.1181 1306.75 27.1788C1262.4 27.2225 1217.37 26.4881 1173.14 26.2335C1149.03 26.0917 1124.63 26.5867 1100.51 26.445C1081.59 26.3228 1061.74 26.3169 1042.88 26.4223C1030.26 26.4896 1019.61 25.8279 1007.73 25.7309C987.374 25.5801 965.819 26.1028 945.404 26.0021C910.204 25.8167 874.937 24.4818 840.036 24.9089C786.804 25.5563 734.526 24.4712 681.414 25.4448C633.023 26.3226 582.959 26.9754 534.239 27.0229C489.127 27.0724 443.639 27.7891 398.413 28.2361C387.561 28.3394 376.502 28.1865 365.534 28.4592C355.944 28.7015 328.269 30.4809 320.549 29.757C314.033 29.1528 306.29 29.2718 298.84 29.3291C276.696 29.4994 255.905 30.2046 234.352 30.9752C217.491 31.5808 201.353 30.763 184.52 31.2395C166.397 31.7556 144.523 32.8063 126.862 32.3472C98.8739 31.6206 73.244 32.4126 45.2371 33.0543C35.4713 33.2782 26.7587 33.137 17.023 33.4498C4.14955 33.8661 -10.3137 33.5014 -23.7145 33.9912C-27.9371 34.1426 -29.2282 34.0732 -32.8651 34.1111C-33.4517 34.1156 -43.0022 35.6465 -43.4117 35.7885C-45.752 36.5996 -40.3449 37.9064 -40.0488 38.271C-39.6343 38.7635 -41.1541 39.4692 -40.9485 39.5172C-40.4783 39.6326 -39.3349 39.5643 -38.2469 39.9129C-36.718 40.3968 -34.7758 41.2048 -33.4515 41.7796L-1.7289 39.9096C31.4743 39.8624 66.6604 38.3128 99.9497 38.0172C119.249 37.8489 137.705 38.6389 156.502 38.0978C185.886 37.2471 214.752 37.7489 243.755 36.9706C255.984 36.6386 267.858 35.9425 279.824 35.7017C305.602 35.1862 330.364 35.9277 355.759 35.1078C433.741 33.6157 512.849 33.7409 590.073 32.8198C613.917 32.5373 638.734 32.862 662.664 32.2218C710.054 30.9551 757.753 31.5896 805.003 31.2064C814.213 31.1356 821.61 31.7727 831.257 31.4705C841.081 31.157 850.788 30.9633 860.703 30.9466C874.166 30.9223 888.014 31.4206 901.538 31.7231C942.786 32.665 983.668 31.8647 1024.94 32.4297C1081.35 33.2054 1137.43 32.6254 1193.84 32.8558C1231.5 33.0024 1271.72 33.9125 1309.35 33.6528C1338.1 33.4615 1366.93 33.9337 1395.47 34.0018C1398.88 34.0053 1404.86 34.6136 1409.09 34.6307C1461.89 34.8195 1515.35 33.6151 1567.64 32.172C1600.69 31.2634 1634.79 30.198 1667.45 31.5134C1683.35 32.1545 1702.88 31.8258 1717.76 32.6631C1722.4 32.9249 1726.95 34.1094 1731.88 34.2103C1735.67 34.2902 1739.95 33.9896 1743.79 34.0394C1740.01 31.5501 1746.49 31.183 1749 29.1808C1743.52 26.3973 1737.4 27.188 1729.3 26.9429L1729.33 26.9328Z" fill="#F2B72F"/>
<path d="M1771.94 21.3586C1771.68 20.9396 1768.71 20.3265 1767.42 20.1528C1758.35 18.9265 1732.87 16.5353 1723.51 16.29C1711.77 15.9937 1700.32 16.9645 1688.46 16.8623C1678.25 16.7703 1666.86 15.963 1656.76 15.8302C1640.12 15.6156 1624.8 17.5776 1608.04 17.3119C1587.31 16.9849 1569.41 15.8813 1547.95 16.4433C1510.5 17.4346 1479 17.4141 1441.52 17.0462C1400.86 16.6477 1360.77 17.3528 1320.23 17.7309C1291.67 17.9966 1264.11 16.9236 1235.22 17.0258C1216.32 17.0973 1197.74 17.1995 1178.57 16.9747C1146.02 16.5864 1113.82 16.9236 1081.12 16.7397C1034.65 16.474 988.099 16.1674 941.838 16.7397C904.354 17.1995 867.516 16.6477 830.648 16.1878C800.708 15.82 770.798 15.0944 741.21 15.0638C727.913 15.0535 713.412 15.5747 700.35 15.3294C694.48 15.217 687.846 14.4711 682.122 14.2667C650.714 13.1222 621.361 14.2054 590.394 14.1543C552.675 14.1032 512.989 13.9397 474.889 14.6243C428.687 15.4623 382.134 15.1864 336.666 15.3805C320.287 15.4521 291.667 16.3616 276.844 15.2375C264.839 14.328 246.287 13.7966 233.46 13.5922C207.101 13.1733 181.534 14.2973 155.293 14.4608C150.068 14.4915 145.107 13.7762 141.614 13.7149C136.301 13.6229 136.977 13.9499 130.108 13.4696C123.856 13.0302 111.439 13.1528 104.277 13.1324C81.0588 13.0813 57.8406 13.8068 35.1213 13.8988C31.4522 13.909 28.282 14.4915 23.7617 14.3995C5.12246 14.0214 -11.9317 12.3557 -31.657 12.2025C-33.4769 12.1922 -38.1734 11.8959 -39.553 12.0389C-39.8465 12.0696 -44.3374 13.2141 -44.5428 13.2959C-45.4821 13.674 -46.5096 15.1557 -45.717 15.5338C-45.5409 15.6258 -43.8091 15.6769 -42.9578 15.9324C-42.5175 16.0652 -38.6136 17.4141 -38.4081 17.5163C-37.733 17.8535 -38.0558 18.3951 -37.5568 18.6199C-35.7369 19.4886 -18.7415 18.8345 -14.4853 18.947C-8.52663 19.1105 -2.89083 19.4783 3.68426 19.6316C16.8344 19.9382 32.5089 20.8988 45.3949 20.4594C76.5385 19.3966 99.5513 18.8448 131.253 19.9178C167.738 21.1645 206.602 19.274 243.998 20.2345C266.805 20.817 288.027 22.074 311.07 22.1353C314.298 22.1353 318.702 21.8185 323.251 21.798C379.492 21.5732 433.531 21.1951 488.656 20.8681C513.811 20.7148 538.85 20.3163 563.448 20.4389C583.232 20.5411 602.986 20.5513 622.388 20.2959C634.687 20.1324 648.865 19.6623 660.958 19.8564C674.49 20.071 689.196 21.2973 702.963 21.5426C723.48 21.9104 745.378 21.5426 765.22 21.6652C825.658 22.0637 885.656 23.6988 946.652 23.0039C988.627 22.5236 1031.51 22.8608 1073.49 23.0754C1092.57 23.1776 1111.21 23.198 1130.17 23.5455C1136.3 23.6579 1141.47 22.9426 1147.22 23.0243C1174.46 23.4331 1204.64 24.0564 1232.11 23.3309C1251.81 22.8097 1272.68 24.2199 1292.28 24.5367C1321.05 24.9966 1350.73 23.9645 1379.43 23.6783C1429.89 23.1776 1479.85 25.1907 1530.25 24.0462C1547.66 23.6477 1564.24 22.636 1582.32 22.9221C1597.32 23.1674 1609.39 24.3426 1625.41 23.9031C1633.66 23.6783 1643.38 22.4112 1651.39 22.544C1661.6 22.7177 1671.64 23.3309 1681.98 23.5761C1698.77 23.9747 1716.29 22.3601 1732.79 23.7499C1739.39 24.3119 1747.58 25.4973 1754.98 26.1922C1758.53 26.5294 1766.81 28.1031 1767.16 25.6506C1767.51 23.2287 1768.16 24.598 1769.65 23.7907C1770.15 23.525 1769.65 22.9528 1770.04 22.5747C1770.5 22.125 1772.24 21.7367 1771.97 21.3178L1771.94 21.3586Z" fill="#F2B72F"/>
<path d="M-34.7205 4.41866C-32.489 4.92029 -31.7257 5.90462 -29.5528 6.40625C-24.7666 7.52309 -16.4861 7.31487 -10.7897 7.23915C-5.03452 7.16343 3.53954 7.32433 8.50191 7.1445C12.9945 6.9836 15.0205 6.27375 22.0089 6.31161C30.9059 6.35893 40.0085 6.40625 49.1698 6.55769C93.1558 7.28648 136.966 7.07825 180.717 7.3338C216.833 7.54202 253.508 9.00906 289.713 9.66212C345.679 10.6748 401.616 8.93334 457.229 9.4255C463.19 9.48229 467.536 9.69998 473.291 9.81356C499.248 10.3341 530.021 9.60534 556.066 9.54855C590.509 9.46336 625.128 9.35925 659.16 8.82923C687.495 8.38438 715.889 9.22675 744.166 8.75351C785.039 8.06258 826.295 8.89548 866.581 8.86709C899.291 8.83869 931.532 8.54528 964.067 7.94901C972.67 7.78811 981.479 8.42224 990.2 8.22348C994.105 8.1383 997.247 7.64614 1001.53 7.75971C1005.62 7.86382 1006.29 8.66833 1012.75 8.42224C1023.15 8.03419 1031.48 7.87329 1042.32 7.92061C1076.26 8.06258 1110.44 8.23295 1144.36 8.4885C1180.88 8.76297 1215.12 7.85436 1250.89 7.93008C1277.43 7.98686 1303.8 7.45684 1330.17 6.81324C1346.23 6.42518 1362.55 6.65234 1378.85 6.56716C1418.7 6.35893 1458.57 6.26428 1497.95 6.63341C1515.89 6.80377 1534.12 6.42518 1552.27 6.56716C1572.56 6.72806 1591.47 7.41898 1612.4 7.16343C1640.12 6.83217 1667.58 6.8227 1695.03 6.35893C1709.1 6.12231 1738.37 6.20749 1751.56 7.23915C1754.87 7.50416 1757.14 8.22348 1760.37 8.20455L1759.28 9.30246C1769.09 8.86709 1767.06 8.24241 1767.09 5.82891C1767.09 5.45978 1768 5.07173 1768 4.68367C1768 4.3808 1766.71 2.57304 1766.3 2.31749C1765.24 1.65496 1760.31 1.16279 1758.02 0.982961C1753.76 0.66116 1745.57 0.367754 1741.16 0.282571C1707.89 -0.332637 1673.95 0.216318 1640.3 0.434007C1612.79 0.613837 1588 0.888314 1559.96 0.443472C1536.24 0.0648823 1512.07 0.50026 1488.52 0.471866C1466.91 0.443471 1445.18 0.131135 1423.92 0.0743467C1384.87 -0.0392301 1348.08 0.339359 1309.41 1.04921C1291.85 1.37102 1275.67 2.09033 1257.32 2.07141C1233.09 2.03355 1208.34 1.97676 1183.64 2.4216C1150.85 3.00841 1119.02 2.29856 1086.13 2.23231C1033.83 2.12819 982.008 1.92944 929.8 2.69608C866.052 3.63309 801.63 2.18498 738.205 2.92323C709.841 3.2545 680.918 3.11253 653.287 3.387C600.463 3.91703 547.932 4.23883 495.754 3.82238C430.949 3.30182 364.647 4.5701 300.812 4.47545C294.939 4.47545 288.479 4.71207 282.724 4.56063C279.113 4.46598 272.565 3.56683 270.127 3.58576C268.101 3.60469 266.251 4.10632 263.345 3.96435C261.553 3.87917 260.555 3.33022 258.735 3.24503C255.622 3.10306 253.42 3.68041 250.924 3.65202C243.583 3.58576 234.304 2.5825 226.905 2.33642C185.738 1.01136 144.688 1.55085 103.404 1.89158C100.673 1.91051 98.3237 1.27637 96.3564 1.23851C94.8589 1.21011 90.5718 1.9389 86.6078 1.82532C66.2885 1.23851 47.643 0.746343 27.4412 0.784202C11.3795 0.812596 -4.24172 0.812596 -20.1565 0.670625C-26.176 0.613837 -33.0763 0.377218 -37.745 1.68335C-44.7922 3.64255 -38.802 3.48165 -34.7205 4.39973V4.41866Z" fill="#F2B72F"/>
</svg>
