<svg viewBox="0 0 653 123" fill="none" xmlns="http://www.w3.org/2000/svg">
<path d="M0.559982 88.94C0.169982 86.99 1.59998 85.69 3.54998 86.34C4.19998 86.6 4.84998 86.73 5.23998 87.25C7.05998 88.68 8.87998 88.16 10.7 87.25C10.83 87.25 11.48 86.86 12.13 86.47C11.74 86.21 11.22 85.95 11.22 85.82C9.52998 83.87 10.05 81.79 10.57 79.71C11.48 76.98 12.39 74.12 13.43 71.39C16.94 61.9 20.45 52.54 24.09 43.05C26.69 36.68 29.42 30.31 32.93 24.46C33.71 23.16 34.49 21.99 33.58 20.43C33.32 20.04 33.45 19.52 33.45 19C34.1 16.14 34.88 13.28 36.05 10.55C37.09 8.47003 38.91 7.95003 40.99 9.12003C41.77 9.64003 42.42 10.42 43.33 11.2C47.1 8.08003 50.61 5.09003 54.77 3.01003C57.5 1.58003 60.36 0.280032 63.61 0.540032C64.26 0.670032 64.91 0.670032 65.56 0.800032C70.11 1.58003 72.19 4.70003 71.28 9.25003C70.89 11.59 69.98 13.54 68.81 15.62C66.6 19.78 63.74 23.55 60.62 27.19C60.1 27.71 58.02 29.79 56.33 30.96C57.89 31.35 59.58 31.87 60.1 32.13C66.73 35.25 69.33 40.71 67.64 47.73C66.34 52.8 63.87 57.22 60.88 61.25C56.72 66.97 51.65 71.91 46.06 76.07C36.83 82.96 26.69 88.16 15.9 92.19C12.65 93.49 9.39998 94.14 5.88998 93.75C2.89998 93.36 1.07998 91.67 0.559982 88.94ZM32.68 76.2C39.96 71.65 46.59 66.45 52.31 60.21C55.69 56.57 58.55 52.54 60.37 47.99C61.15 46.17 61.54 44.22 61.54 42.27C61.41 39.02 59.46 36.68 56.34 36.16C53.87 35.64 51.53 36.03 49.45 37.72C45.29 40.97 40.87 43.7 36.06 45.65C34.76 46.3 33.72 46.69 33.07 47.08L31.64 50.46C27.09 61.12 17.47 83.35 17.08 84.65C23.06 82.05 28 79.19 32.68 76.2ZM39.57 34.08C46.33 32 47.63 31.22 52.57 26.02C55.82 22.51 58.81 18.87 61.15 14.71C62.32 12.76 63.23 10.68 64.14 8.60003C64.4 8.08003 64.53 7.30003 63.88 6.78003C63.36 6.26003 62.71 6.39003 62.06 6.52003C61.15 6.78003 60.24 7.17003 59.33 7.56003C52.7 10.81 47.37 15.36 42.69 21.08C42.3 21.6 41.91 22.12 41.78 22.64C40.74 25.76 39.7 28.88 38.79 32C38.66 32.26 38.4 33.43 38.01 34.47C38.79 34.21 39.44 34.08 39.57 34.08Z" fill="#231F20"/>
<path d="M7.93996 94.36C7.23996 94.36 6.53996 94.32 5.83996 94.24C2.62996 93.82 0.639956 92.02 0.069956 89.03C-0.150044 87.92 0.129956 86.92 0.849956 86.29C1.56996 85.65 2.60996 85.5 3.70996 85.87C3.86996 85.93 3.99996 85.98 4.12996 86.03C4.65996 86.22 5.19996 86.41 5.59996 86.9C7.13996 88.08 8.66996 87.72 10.48 86.81L10.64 86.76C10.74 86.72 10.95 86.6 11.18 86.47C11 86.35 10.86 86.23 10.79 86.08C9.00996 83.95 9.58996 81.64 10.1 79.6L10.65 77.93C11.38 75.71 12.14 73.42 12.98 71.22C16.81 60.87 20.29 51.6 23.64 42.88C26.03 37.02 28.88 30.27 32.52 24.21L32.61 24.06C33.43 22.7 33.86 21.88 33.17 20.69C32.9 20.28 32.93 19.8 32.96 19.37C32.96 19.25 32.98 19.13 32.98 19.01V18.9C33.53 16.52 34.32 13.39 35.62 10.36C36.2 9.21002 37 8.45002 37.97 8.16002C38.96 7.85002 40.1 8.04002 41.26 8.69002C41.8 9.05002 42.25 9.48002 42.72 9.94002C42.92 10.14 43.14 10.34 43.36 10.55L43.66 10.3C47.22 7.35002 50.58 4.56002 54.56 2.57002C57.27 1.13002 60.22 -0.239977 63.66 0.0400225C64.03 0.110023 64.34 0.140023 64.65 0.170023C64.99 0.200023 65.33 0.240023 65.67 0.310023C68 0.710023 69.8 1.74002 70.86 3.29002C71.94 4.86002 72.26 6.96002 71.78 9.35002C71.36 11.88 70.32 13.98 69.26 15.87C67.33 19.51 64.7 23.21 61.01 27.52C59.45 29.08 58.29 30.09 57.47 30.75C58.65 31.07 59.85 31.45 60.33 31.69C67.1 34.88 69.8699 40.62 68.13 47.86C66.95 52.46 64.71 56.94 61.28 61.56C57.27 67.08 52.24 72.1 46.36 76.48C37.56 83.05 27.66 88.34 16.08 92.67C13.21 93.82 10.57 94.38 7.93996 94.38V94.36ZM2.57996 86.67C2.15996 86.67 1.78996 86.79 1.50996 87.04C1.06996 87.43 0.899956 88.09 1.04996 88.84C1.52996 91.37 3.22996 92.9 5.94996 93.25C9.11996 93.6 12.22 93.12 15.71 91.72C27.21 87.42 37.04 82.17 45.76 75.66C51.57 71.34 56.52 66.39 60.48 60.95C63.83 56.43 66.01 52.07 67.16 47.6C68.8 40.78 66.29 35.59 59.89 32.58C59.41 32.34 57.76 31.83 56.21 31.44L55.14 31.17L56.05 30.54C56.8 30.02 58.15 28.95 60.27 26.83C63.89 22.61 66.47 18.96 68.37 15.38C69.39 13.56 70.39 11.56 70.79 9.16002C71.22 7.02002 70.95 5.19002 70.03 3.85002C69.11 2.51002 67.58 1.65002 65.48 1.29002C65.16 1.23002 64.85 1.20002 64.54 1.17002C64.2 1.14002 63.86 1.10002 63.52 1.03002C60.41 0.790022 57.61 2.09002 55.01 3.45002C51.13 5.39002 47.81 8.14002 44.29 11.06L43.33 11.85L43.01 11.58C42.64 11.27 42.32 10.95 42.01 10.65C41.55 10.21 41.15 9.82002 40.72 9.53002C39.84 9.03002 38.97 8.88002 38.24 9.10002C37.53 9.32002 36.95 9.88002 36.5 10.77C35.26 13.68 34.48 16.72 33.95 19.05C33.95 19.17 33.95 19.3 33.93 19.42C33.91 19.73 33.89 20 33.99 20.15C35.03 21.93 34.22 23.27 33.44 24.56L33.35 24.71C29.75 30.71 26.92 37.42 24.54 43.23C21.2 51.94 17.71 61.21 13.89 71.56C13.06 73.75 12.3 76.03 11.58 78.23L11.04 79.86C10.55 81.83 10.07 83.73 11.59 85.48L11.69 85.6C11.78 85.66 11.91 85.74 12.01 85.8C12.14 85.88 12.27 85.96 12.4 86.04L13.06 86.48L12.38 86.89C11.41 87.47 11.07 87.66 10.85 87.72C9.06996 88.6 6.98996 89.26 4.91996 87.63L4.82996 87.54C4.60996 87.25 4.24996 87.12 3.77996 86.95C3.63996 86.9 3.49996 86.85 3.34996 86.79C3.07996 86.7 2.80996 86.65 2.55996 86.65L2.57996 86.67ZM16.29 85.54L16.6 84.51C16.88 83.57 21.62 72.53 26.21 61.86C28.06 57.55 29.84 53.4 31.18 50.27L32.67 46.74L32.81 46.66C33.19 46.43 33.69 46.2 34.27 45.94C34.73 45.73 35.25 45.5 35.83 45.21C40.35 43.38 44.69 40.8 49.14 37.33C51.21 35.65 53.67 35.09 56.44 35.67C59.74 36.22 61.9 38.74 62.04 42.25C62.04 44.32 61.63 46.31 60.83 48.19C59.14 52.42 56.47 56.47 52.68 60.55C47.28 66.44 40.82 71.7 32.95 76.62C29.13 79.06 23.9 82.23 17.28 85.11L16.29 85.54ZM33.46 47.43L32.1 50.66C30.76 53.8 28.98 57.94 27.13 62.26C23.43 70.88 19.31 80.47 17.98 83.71C24.02 80.99 28.84 78.07 32.41 75.78C40.21 70.9 46.59 65.7 51.94 59.87C55.65 55.87 58.25 51.93 59.9 47.8C60.65 46.04 61.03 44.18 61.03 42.27C60.91 39.24 59.12 37.13 56.25 36.65C53.73 36.12 51.61 36.6 49.76 38.11C45.24 41.65 40.82 44.26 36.24 46.12C35.69 46.4 35.15 46.64 34.68 46.85C34.2 47.07 33.78 47.26 33.46 47.43ZM37.17 35.27L37.54 34.29C37.75 33.72 37.93 33.12 38.06 32.63C38.19 32.16 38.26 31.92 38.34 31.77C39.22 28.72 40.28 25.55 41.3 22.47C41.44 21.89 41.87 21.32 42.28 20.77C47.27 14.67 52.77 10.21 59.1 7.10002C60.03 6.70002 60.97 6.30002 61.91 6.03002C62.65 5.88002 63.51 5.71002 64.22 6.42002C65.03 7.06002 64.94 8.09002 64.57 8.82002C63.68 10.86 62.75 12.98 61.56 14.96C59.52 18.58 56.85 22.1 52.92 26.35C47.95 31.59 46.59 32.43 39.7 34.55L39.56 34.57C39.44 34.58 38.85 34.7 38.15 34.93L37.16 35.26L37.17 35.27ZM62.9 6.90002C62.69 6.90002 62.45 6.94002 62.15 7.00002C61.31 7.24002 60.4 7.63002 59.52 8.01002C53.34 11.04 47.95 15.42 43.07 21.39C42.73 21.84 42.36 22.33 42.26 22.75C41.23 25.85 40.17 29.02 39.26 32.13C39.19 32.29 39.1 32.61 39.02 32.9C38.95 33.14 38.87 33.42 38.78 33.71C39.07 33.64 39.32 33.59 39.47 33.57C46.16 31.51 47.36 30.76 52.2 25.66C56.08 21.47 58.7 18.01 60.71 14.45C61.87 12.51 62.79 10.41 63.68 8.38002C63.84 8.06002 64.02 7.51002 63.57 7.15002C63.37 6.96002 63.16 6.89002 62.91 6.89002L62.9 6.90002Z" fill="#231F20"/>
<path d="M74.27 78.15C72.84 76.46 71.02 72.95 72.45 67.88C75.18 58.65 79.73 50.46 86.49 43.7C89.09 40.97 92.21 38.89 95.98 37.72C97.93 37.07 99.75 37.33 101.57 38.24C104.17 39.41 105.21 41.36 105.08 44.09C104.82 46.43 103.78 48.51 102.74 50.46C98.97 57.09 94.03 62.68 88.18 67.62C85.71 69.7 82.98 71.52 80.25 73.21C79.08 73.86 79.08 75.16 80.25 75.94C81.55 76.72 82.85 77.11 84.41 76.72C86.1 76.33 87.92 75.94 89.61 75.29C99.36 71.52 112.88 63.07 120.81 56.31C122.11 55.27 123.15 53.97 124.32 52.8C125.88 51.24 127.31 51.11 129.13 52.15C130.04 52.8 130.56 54.1 130.04 55.14C129.78 55.66 129.39 56.31 129 56.83C127.44 58.52 126.01 60.34 124.32 61.77C116.52 68.66 103.26 77.11 93.64 81.01C91.04 82.18 88.18 83.09 84.67 83.09C80.9 82.83 77.13 81.4 74.27 78.15ZM80.64 65.41C81.16 65.54 81.68 65.15 82.2 64.76C87.79 60.08 92.6 54.75 96.24 48.51C97.02 47.08 98.58 45.78 97.67 43.7C95.98 43.83 94.68 44.87 93.38 45.91C87.4 50.85 83.37 57.35 80.51 64.63C80.38 64.89 80.51 65.15 80.64 65.41Z" fill="#231F20"/>
<path d="M84.67 83.59C80.29 83.29 76.57 81.52 73.89 78.48C72.77 77.15 70.36 73.47 71.97 67.74C74.82 58.1 79.59 49.89 86.14 43.34C88.91 40.43 92.18 38.37 95.84 37.24C97.8 36.59 99.75 36.77 101.8 37.79C104.49 39 105.73 41.07 105.59 44.11C105.32 46.54 104.3 48.61 103.19 50.69C99.57 57.05 94.77 62.71 88.51 68C85.78 70.3 82.8 72.22 80.52 73.63C80.11 73.86 79.89 74.16 79.88 74.49C79.87 74.86 80.1 75.23 80.53 75.52C81.89 76.33 83.02 76.55 84.29 76.23L84.78 76.12C86.33 75.76 87.93 75.4 89.43 74.82C98.55 71.29 112.2 62.99 120.49 55.93C121.34 55.25 122.09 54.44 122.82 53.66C123.2 53.25 123.58 52.84 123.97 52.45C125.65 50.77 127.32 50.54 129.38 51.72C130.46 52.49 131.15 54.05 130.49 55.37C130.19 55.97 129.79 56.63 129.4 57.14C128.92 57.66 128.48 58.16 128.05 58.65C126.98 59.86 125.88 61.12 124.64 62.16C116.5 69.35 103.25 77.66 93.82 81.48C90.57 82.94 87.74 83.6 84.66 83.6L84.67 83.59ZM74.65 77.82C77.81 81.41 81.86 82.39 84.71 82.59C88.44 82.59 91.33 81.5 93.44 80.55C102.79 76.76 115.92 68.53 124 61.39C125.18 60.39 126.22 59.22 127.31 57.98C127.75 57.48 128.19 56.98 128.64 56.49C128.95 56.07 129.33 55.45 129.6 54.92C130.01 54.09 129.53 53.05 128.85 52.56C127.22 51.63 126.04 51.79 124.68 53.16C124.29 53.55 123.92 53.95 123.55 54.35C122.8 55.16 122.02 56 121.13 56.71C112.64 63.95 99.16 72.14 89.8 75.77C88.24 76.37 86.6 76.75 85.01 77.11L84.53 77.22C83.01 77.6 81.6 77.34 80 76.38C79.25 75.88 78.85 75.19 78.88 74.46C78.91 73.78 79.32 73.16 80.01 72.78C82.25 71.4 85.18 69.5 87.86 67.24C94.03 62.03 98.76 56.46 102.31 50.21C103.37 48.23 104.34 46.26 104.59 44.03C104.71 41.44 103.69 39.73 101.37 38.69C99.53 37.77 97.87 37.61 96.14 38.19C92.64 39.28 89.52 41.24 86.85 44.04C80.41 50.48 75.73 58.54 72.93 68.02C71.45 73.27 73.64 76.62 74.65 77.82ZM80.86 65.93C80.75 65.93 80.64 65.92 80.53 65.89L80.31 65.83L80.21 65.62C80.06 65.32 79.84 64.88 80.08 64.39C83.26 56.29 87.52 50.1 93.08 45.51C94.42 44.44 95.81 43.33 97.65 43.19L98 43.16L98.14 43.49C98.96 45.36 98.02 46.73 97.27 47.83C97.06 48.13 96.86 48.43 96.69 48.74C93.2 54.72 88.58 60.07 82.53 65.13C82.02 65.51 81.47 65.92 80.86 65.92V65.93ZM97.34 44.24C95.98 44.47 94.86 45.36 93.69 46.3C88.27 50.78 84.11 56.84 80.97 64.81C80.97 64.84 80.97 64.88 80.97 64.91C81.24 64.84 81.57 64.59 81.89 64.35C87.82 59.38 92.38 54.11 95.8 48.25C95.98 47.93 96.2 47.6 96.43 47.27C97.1 46.28 97.69 45.42 97.34 44.24Z" fill="#231F20"/>
<path d="M108.98 85.95C109.24 84.52 109.76 83.09 110.15 81.79C113.79 69.96 118.47 58.78 123.93 47.73C126.92 41.75 129.65 35.64 132.51 29.66C133.29 27.97 134.07 26.28 134.59 24.59C135.76 21.21 137.45 18.09 137.06 14.32C136.93 13.02 137.97 12.11 139.14 11.98C140.83 11.72 142.39 12.5 142.78 13.8C142.91 14.58 143.04 15.49 143.04 16.27C143.04 19.26 142.39 22.12 141.48 24.85C140.44 28.49 139.14 32 137.71 35.51C135.24 41.23 132.64 46.82 130.04 52.41C127.83 57.48 129.78 55.4 130.56 54.75C132.38 53.06 134.2 51.5 136.15 49.94C137.71 48.64 139.53 48.12 141.61 48.12C145.38 48.38 147.33 50.33 147.2 54.1C147.07 56.05 146.68 58 146.16 59.82C145.77 61.51 144.73 65.02 144.34 66.71C143.69 69.31 142.91 71.78 142.91 74.38C142.91 76.59 143.95 77.5 146.03 76.59C147.85 75.94 149.54 75.03 151.23 73.99C160.33 68.79 168.52 62.29 175.8 54.75C176.71 53.97 177.36 53.06 178.27 52.41C179.83 50.85 181.91 51.24 183.34 53.06C183.73 53.58 183.86 54.23 183.47 54.88C182.95 55.66 182.3 56.44 181.65 57.22C174.11 65.93 165.4 73.21 155.52 79.06C153.31 80.49 150.84 81.53 148.37 82.18C147.46 82.31 146.42 82.57 145.51 82.57C139.4 82.57 133.81 79.06 136.15 69.18C136.93 66.32 137.58 63.33 138.36 60.34C138.62 59.43 139.14 58.52 138.36 57.48C136.8 58.13 135.89 59.43 134.72 60.6C128.48 67.1 123.15 74.38 118.99 82.44C117.95 84.52 116.39 86.47 114.96 88.42C113.92 90.11 112.36 90.37 110.67 89.59C109.37 89.07 108.59 87.51 108.98 85.95Z" fill="#231F20"/>
<path d="M112.39 90.5C111.79 90.5 111.14 90.35 110.46 90.04C108.91 89.42 108.06 87.61 108.49 85.84C108.69 84.75 109.03 83.68 109.36 82.65C109.47 82.31 109.58 81.97 109.67 81.64C113.07 70.6 117.58 59.44 123.48 47.5C125.36 43.75 127.15 39.89 128.89 36.16C129.94 33.91 130.99 31.66 132.05 29.43C132.81 27.79 133.59 26.09 134.1 24.43C134.35 23.7 134.62 22.99 134.89 22.29C135.89 19.68 136.84 17.21 136.55 14.35C136.38 12.67 137.72 11.61 139.07 11.46C140.98 11.17 142.78 12.1 143.24 13.63C143.38 14.44 143.52 15.4 143.52 16.24C143.52 18.96 143.02 21.73 141.93 24.98C141.01 28.19 139.81 31.59 138.15 35.67C135.67 41.41 133.03 47.1 130.47 52.59C129.96 53.76 129.71 54.46 129.6 54.87C129.73 54.76 129.85 54.65 129.94 54.58C130.04 54.49 130.14 54.4 130.22 54.33C131.98 52.69 133.82 51.11 135.82 49.51C137.38 48.21 139.27 47.58 141.59 47.58C145.72 47.86 147.82 50.11 147.68 54.08C147.56 55.93 147.2 57.89 146.62 59.92C146.43 60.75 146.06 62.08 145.71 63.36C145.36 64.63 145 65.95 144.81 66.78C144.7 67.23 144.58 67.66 144.47 68.09C143.91 70.22 143.39 72.24 143.39 74.33C143.39 75.31 143.61 75.97 144.01 76.24C144.49 76.55 145.25 76.33 145.81 76.09C147.41 75.52 148.99 74.73 150.95 73.52C159.79 68.47 168.02 62.02 175.42 54.36C175.83 54.01 176.16 53.65 176.49 53.31C176.94 52.84 177.4 52.35 177.96 51.96C178.69 51.23 179.63 50.84 180.62 50.9C181.75 50.97 182.85 51.61 183.71 52.71C184.28 53.46 184.33 54.33 183.88 55.1C183.34 55.92 182.67 56.72 182.02 57.49C174.47 66.22 165.63 73.6 155.75 79.45C153.61 80.83 151.09 81.93 148.47 82.62C148.14 82.67 147.85 82.72 147.55 82.78C146.86 82.9 146.15 83.03 145.48 83.03C141.78 83.03 138.76 81.79 136.98 79.54C135.02 77.06 134.57 73.53 135.64 69.03C136.07 67.44 136.45 65.86 136.86 64.19C137.18 62.86 137.5 61.52 137.85 60.18C137.9 60.01 137.95 59.86 138 59.71C138.22 59.06 138.35 58.59 138.14 58.1C137.24 58.58 136.56 59.31 135.85 60.08C135.59 60.36 135.33 60.65 135.05 60.92C128.69 67.54 123.43 74.85 119.41 82.64C118.53 84.39 117.29 86.06 116.09 87.67L115.34 88.68C114.62 89.86 113.58 90.47 112.36 90.47L112.39 90.5ZM139.8 12.42C139.61 12.42 139.42 12.43 139.22 12.46C138.33 12.56 137.46 13.22 137.56 14.26C137.88 17.36 136.84 20.05 135.84 22.66C135.57 23.35 135.31 24.04 135.06 24.75C134.54 26.46 133.74 28.19 132.96 29.87C131.89 32.1 130.85 34.34 129.8 36.59C128.06 40.33 126.25 44.19 124.37 47.95C118.5 59.84 114 70.95 110.62 81.93C110.52 82.26 110.41 82.6 110.3 82.95C109.98 83.96 109.65 85 109.46 86.03V86.06C109.13 87.33 109.75 88.68 110.84 89.11C112.44 89.85 113.67 89.52 114.52 88.14L115.3 87.09C116.48 85.51 117.69 83.88 118.53 82.2C122.6 74.32 127.92 66.94 134.35 60.24C134.63 59.96 134.88 59.69 135.13 59.42C135.98 58.5 136.86 57.55 138.16 57.01L138.52 56.86L138.75 57.17C139.56 58.25 139.23 59.24 138.96 60.04C138.91 60.18 138.87 60.32 138.83 60.46C138.48 61.78 138.16 63.12 137.84 64.44C137.45 66.05 137.05 67.71 136.62 69.29C135.63 73.46 136.02 76.71 137.78 78.94C139.37 80.95 142.11 82.05 145.5 82.05C146.08 82.05 146.75 81.93 147.39 81.82C147.7 81.77 148 81.71 148.29 81.67C150.75 81.02 153.17 79.96 155.24 78.63C165.04 72.82 173.79 65.51 181.26 56.88C181.89 56.12 182.54 55.34 183.04 54.59C183.28 54.19 183.24 53.77 182.93 53.35C182.25 52.49 181.41 51.98 180.57 51.93C179.87 51.89 179.19 52.17 178.61 52.75C178.07 53.15 177.66 53.58 177.22 54.03C176.88 54.39 176.52 54.76 176.11 55.11C168.68 62.81 160.37 69.31 151.46 74.41C149.45 75.65 147.82 76.46 146.18 77.05C145.08 77.53 144.15 77.56 143.47 77.11C142.76 76.64 142.39 75.72 142.39 74.37C142.39 72.14 142.93 70.07 143.5 67.87C143.61 67.44 143.72 67.01 143.83 66.58C144.03 65.73 144.39 64.41 144.74 63.12C145.09 61.85 145.45 60.53 145.64 59.7C146.21 57.72 146.55 55.83 146.67 54.06C146.79 50.64 145.11 48.86 141.54 48.61C139.49 48.61 137.81 49.17 136.43 50.32C134.44 51.91 132.62 53.48 130.86 55.11C130.76 55.19 130.67 55.27 130.58 55.35C129.92 55.93 129.3 56.48 128.77 56.09C128.29 55.74 128.29 55.07 129.54 52.2C132.1 46.7 134.74 41.02 137.21 35.3C138.85 31.27 140.05 27.89 140.96 24.7C142.01 21.54 142.5 18.86 142.5 16.26C142.5 15.49 142.36 14.58 142.25 13.87C141.99 13.01 140.96 12.42 139.75 12.42H139.8Z" fill="#231F20"/>
<path d="M165.92 75.68C165.79 74.25 166.05 72.69 166.44 71.26C168.65 63.46 172.68 56.57 178.27 50.72C180.35 48.77 181.91 48.38 183.99 49.42C185.16 50.07 185.55 51.24 184.9 52.28C184.25 53.32 183.6 54.1 182.82 55.01C179.05 59.82 176.06 65.02 174.11 70.87C173.59 72.56 172.94 74.25 173.07 76.07C173.07 76.72 173.72 77.24 174.37 76.98C176.06 76.07 177.88 75.16 179.44 73.99C186.33 69.31 199.46 56.7 202.06 53.84C203.62 52.15 204.66 51.89 206.35 52.8C207.65 53.45 208.17 54.75 207.26 55.92C206.48 57.22 205.57 58.39 204.66 59.43C196.99 67.49 188.54 76.07 181.13 80.88C179.05 82.18 176.84 83.22 174.24 83.35C168.65 83.48 166.44 80.1 165.92 75.68ZM185.55 34.21C185.94 30.57 188.54 29.27 191.79 31.35C193.09 32.26 193.74 33.82 193.22 35.25C192.83 36.16 192.44 36.94 191.92 37.85C191.27 38.76 190.49 39.67 189.19 39.54C187.63 39.28 186.33 38.63 185.81 37.07C185.55 36.55 185.55 35.9 185.55 35.77C185.55 34.86 185.42 34.6 185.55 34.21Z" fill="#231F20"/>
<path d="M173.95 83.85C168.99 83.85 166.05 81.05 165.42 75.74C165.3 74.42 165.48 72.87 165.96 71.13C168.16 63.35 172.19 56.37 177.91 50.38C180.2 48.24 181.96 47.85 184.22 48.98C184.97 49.4 185.47 50 185.65 50.69C185.81 51.32 185.7 51.96 185.33 52.55C184.66 53.62 184 54.41 183.21 55.34C179.25 60.39 176.43 65.53 174.59 71.03L174.37 71.72C173.9 73.18 173.47 74.56 173.57 76.04C173.57 76.23 173.65 76.39 173.79 76.48C173.87 76.54 174.01 76.59 174.19 76.52L174.9 76.14C176.35 75.37 177.85 74.57 179.15 73.6C185.84 69.05 198.87 56.62 201.7 53.51C203.42 51.64 204.7 51.35 206.6 52.37C207.42 52.78 208 53.46 208.18 54.22C208.33 54.9 208.15 55.62 207.67 56.24C207 57.37 206.13 58.54 205.05 59.77C197.58 67.62 188.98 76.4 181.42 81.31C179.64 82.42 177.23 83.71 174.28 83.86C174.17 83.86 174.07 83.86 173.97 83.86L173.95 83.85ZM166.42 75.63C167.01 80.6 169.57 82.97 174.23 82.85C176.93 82.71 179.2 81.5 180.87 80.46C188.34 75.61 196.88 66.89 204.3 59.09C205.32 57.92 206.16 56.8 206.83 55.67C207.16 55.24 207.28 54.83 207.19 54.44C207.08 53.97 206.7 53.54 206.13 53.26C204.64 52.46 203.85 52.66 202.43 54.19C199.59 57.32 186.45 69.84 179.72 74.42C178.38 75.43 176.85 76.24 175.36 77.03L174.6 77.43C174.1 77.63 173.62 77.58 173.22 77.31C172.81 77.03 172.56 76.57 172.56 76.08C172.44 74.45 172.93 72.91 173.41 71.42L173.63 70.73C175.51 65.11 178.38 59.87 182.42 54.71C183.2 53.8 183.84 53.03 184.47 52.02C184.69 51.67 184.76 51.29 184.67 50.94C184.56 50.52 184.23 50.14 183.74 49.87C181.9 48.95 180.55 49.27 178.6 51.1C173.01 56.95 169.07 63.79 166.91 71.41C166.47 73.03 166.3 74.45 166.41 75.64L166.42 75.63ZM189.44 40.05C189.34 40.05 189.25 40.05 189.15 40.04C187.1 39.7 185.86 38.78 185.35 37.23C185.18 36.89 185.06 36.35 185.06 35.77C185.06 35.42 185.04 35.17 185.02 34.98C184.99 34.67 184.97 34.42 185.06 34.11C185.28 32.19 186.09 30.81 187.36 30.2C188.67 29.57 190.34 29.83 192.06 30.94C193.62 32.03 194.27 33.83 193.69 35.43C193.28 36.39 192.88 37.18 192.35 38.11C191.84 38.83 190.96 40.06 189.43 40.06L189.44 40.05ZM188.89 30.85C188.49 30.85 188.12 30.93 187.79 31.09C186.83 31.55 186.21 32.67 186.04 34.26L186.02 34.36C185.98 34.49 185.98 34.59 186.01 34.89C186.03 35.11 186.05 35.38 186.05 35.76C186.05 36.18 186.13 36.57 186.26 36.84C186.68 38.09 187.63 38.77 189.28 39.04C190.19 39.13 190.82 38.54 191.52 37.55C192 36.7 192.38 35.94 192.77 35.04C193.18 33.9 192.68 32.57 191.51 31.75C190.58 31.15 189.68 30.85 188.9 30.85H188.89Z" fill="#231F20"/>
<path d="M186.98 85.1701C187.37 84.1301 188.02 83.2201 188.41 82.1801C191.53 75.6801 194.52 69.1801 197.64 62.6801C200.37 57.0901 202.06 51.1101 202.45 44.8701C202.58 43.1801 202.58 41.6201 203.23 40.0601C204.01 38.2401 205.31 37.7201 207.13 38.2401C208.95 38.7601 209.86 40.0601 210.12 41.7501C210.51 43.7001 210.38 45.6501 209.99 47.6001L208.82 53.8401C210.12 54.7501 211.16 53.5801 212.2 53.4501C216.49 53.0601 219.09 55.1401 219.09 59.5601C219.22 61.6401 218.96 63.7201 218.7 65.9301C218.31 68.9201 218.18 72.0401 218.31 75.1601C218.44 77.2401 219.48 77.8901 221.17 76.9801C222.99 75.9401 224.55 74.9001 226.11 73.7301C233.39 68.6601 240.02 62.8101 246.26 56.5701C247.56 55.1401 248.99 53.8401 250.42 52.4101C251.59 51.2401 252.89 50.9801 254.45 51.5001C256.92 52.1501 257.57 53.8401 256.01 55.7901C254.97 57.2201 253.67 58.6501 252.5 59.9501C245.87 67.3601 238.59 74.2501 230.53 80.1001C227.93 82.0501 225.2 83.7401 221.82 84.3901C217.27 85.3001 212.33 83.6101 211.29 77.6301C210.9 75.2901 210.64 72.8201 210.9 70.3501C211.16 68.1401 211.29 65.8001 211.42 63.5901L210.51 63.2001C209.34 64.7601 208.17 66.3201 207.13 67.8801C203.1 73.8601 199.07 79.8401 195.04 85.6901C194.26 86.8601 193.48 87.9001 192.7 88.9401C191.66 90.1101 189.58 90.3701 188.15 89.4601C186.85 88.6801 186.2 86.9901 186.98 85.1701Z" fill="#231F20"/>
<path d="M190.09 90.49C189.31 90.49 188.54 90.29 187.89 89.88C186.27 88.91 185.71 86.8901 186.52 84.9801C186.73 84.4301 187 83.9301 187.26 83.4401C187.52 82.9501 187.76 82.4901 187.95 82C189.53 78.71 191.05 75.4701 192.58 72.2201C194.11 68.9701 195.64 65.71 197.2 62.46C199.99 56.76 201.59 50.8301 201.96 44.8301L202.01 44.0401C202.1 42.6101 202.19 41.2501 202.77 39.8601C203.63 37.8501 205.15 37.15 207.27 37.75C209.15 38.2901 210.31 39.64 210.62 41.67C210.98 43.46 210.94 45.44 210.49 47.69L209.39 53.5801C209.89 53.8001 210.35 53.6201 211 53.3301C211.37 53.1701 211.75 53.0001 212.15 52.9501C214.54 52.7301 216.4 53.23 217.7 54.41C218.96 55.56 219.6 57.29 219.6 59.55C219.73 61.57 219.49 63.6 219.23 65.74L219.2 65.9801C218.81 68.9401 218.68 72.02 218.81 75.13C218.86 75.99 219.09 76.58 219.46 76.78C219.87 77.01 220.49 76.78 220.94 76.53C222.65 75.55 224.2 74.53 225.82 73.32C232.44 68.71 239.01 63.12 245.92 56.21C246.77 55.27 247.68 54.39 248.64 53.46C249.12 53 249.6 52.53 250.08 52.05C251.36 50.77 252.85 50.43 254.62 51.0201C256.39 51.4801 257.03 52.38 257.25 53.05C257.46 53.69 257.49 54.75 256.41 56.09C255.42 57.4501 254.16 58.8501 253.05 60.0801L252.88 60.2701C245.64 68.3701 238.42 74.98 230.83 80.49C228.47 82.26 225.56 84.1701 221.92 84.8701C219.05 85.4401 216.35 84.9901 214.33 83.6101C212.47 82.34 211.26 80.3 210.81 77.71C210.47 75.7001 210.13 73.0401 210.42 70.2901C210.66 68.2001 210.79 66.0201 210.92 63.9001L210.69 63.8C209.62 65.23 208.52 66.7 207.56 68.14C203.61 74 199.53 80.05 195.47 85.96C194.69 87.13 193.9 88.19 193.13 89.21C192.39 90.05 191.25 90.4801 190.1 90.4801L190.09 90.49ZM205.91 38.55C204.89 38.55 204.19 39.1 203.7 40.26C203.19 41.49 203.1 42.77 203.01 44.12L202.95 44.91C202.57 51.0301 200.93 57.0801 198.09 62.9001C196.53 66.1501 195 69.4001 193.47 72.6501C191.94 75.9001 190.42 79.1501 188.86 82.4001C188.67 82.91 188.4 83.4201 188.14 83.9101C187.88 84.4001 187.64 84.86 187.45 85.35V85.3701C186.72 87.0601 187.4 88.43 188.41 89.0401C189.62 89.8101 191.45 89.6101 192.33 88.6201C193.07 87.6201 193.86 86.58 194.63 85.42C198.7 79.51 202.78 73.46 206.72 67.6101C207.77 66.0401 208.96 64.4501 210.11 62.91L210.35 62.6L211.94 63.28L211.9 63.98C211.78 66.1101 211.65 68.31 211.4 70.42C211.12 73.04 211.46 75.61 211.79 77.56C212.2 79.91 213.24 81.6701 214.89 82.8001C216.69 84.0401 219.12 84.4301 221.72 83.9101C225.17 83.2501 227.96 81.41 230.23 79.71C237.77 74.24 244.93 67.6701 252.13 59.6301L252.3 59.44C253.39 58.23 254.63 56.85 255.6 55.51C256.05 54.94 256.53 54.13 256.28 53.39C256.08 52.77 255.38 52.28 254.32 52C252.87 51.5201 251.79 51.76 250.77 52.78C250.29 53.27 249.8 53.7401 249.32 54.2001C248.37 55.1201 247.48 55.99 246.63 56.92C239.66 63.89 233.05 69.5201 226.4 74.1501C224.77 75.3801 223.18 76.42 221.42 77.42C220.44 77.95 219.62 78.03 218.97 77.67C218.28 77.29 217.89 76.45 217.81 75.2C217.68 72.02 217.81 68.8901 218.2 65.8701L218.23 65.64C218.48 63.54 218.71 61.56 218.59 59.6C218.59 57.6 218.06 56.12 217.01 55.16C215.93 54.17 214.32 53.76 212.24 53.9501C212 53.9801 211.7 54.1101 211.39 54.25C210.65 54.58 209.64 55.0301 208.53 54.25L208.27 54.0601L209.5 47.5C209.92 45.37 209.97 43.5201 209.63 41.8401C209.38 40.1801 208.49 39.14 206.99 38.71C206.59 38.6 206.23 38.5401 205.9 38.5401L205.91 38.55Z" fill="#231F20"/>
<path d="M267.97 69.18C268.36 68.01 270.05 63.72 270.44 62.55C274.21 52.8 270.05 59.3 269.79 59.56C265.37 65.8 260.3 71.52 254.32 76.33C252.5 77.89 250.55 78.8 248.08 78.54C245.09 78.28 243.27 76.72 242.75 73.73C242.36 72.04 242.36 70.22 242.88 68.4C243.4 66.71 243.92 65.02 244.7 63.33C247.56 56.57 251.2 50.2 255.75 44.35C257.31 42.27 259.13 40.32 261.21 38.76C265.24 35.51 269.79 35.38 273.69 38.37C274.21 38.76 274.73 39.15 275.64 39.67C279.15 33.95 282.92 28.36 285.65 22.25C286.82 19.91 287.86 17.57 289.16 15.23C290.46 13.02 291.63 12.63 293.45 13.54C295.66 14.58 296.05 15.88 295.14 18.48C294.75 19.39 294.36 20.17 293.84 21.08C291.24 25.63 289.42 30.44 287.6 35.38C283.83 45.52 279.8 56.57 276.16 66.71C275.51 69.31 274.73 71.78 274.73 74.38C274.73 76.59 275.77 77.5 277.85 76.59C279.67 75.94 281.36 75.03 283.05 73.99C292.15 68.79 300.34 62.29 307.62 54.75C308.53 53.97 309.18 53.06 310.09 52.41C311.65 50.85 313.73 51.24 315.16 53.06C315.55 53.58 315.68 54.23 315.29 54.88C314.77 55.66 314.12 56.44 313.47 57.22C305.93 65.93 297.22 73.21 287.34 79.06C285.13 80.49 282.66 81.53 280.19 82.18C279.28 82.31 278.24 82.57 277.33 82.57C271.22 82.57 265.63 79.06 267.97 69.18ZM252.11 69.31C258.61 63.2 264.07 56.44 269.27 49.29C270.57 47.47 270.44 45.52 270.31 43.7C270.18 42.4 269.01 41.75 267.71 42.4C265.63 43.44 264.07 45 262.64 46.82C257.57 52.8 253.8 59.69 250.68 66.97C250.29 67.88 249.64 69.05 250.42 70.09C251.2 70.22 251.59 69.7 252.11 69.31Z" fill="#231F20"/>
<path d="M277.33 83.07C273.63 83.07 270.61 81.83 268.83 79.58C266.87 77.1 266.42 73.57 267.49 69.07V69.03C267.7 68.44 268.21 67.1 268.74 65.7C269.25 64.36 269.78 62.98 269.97 62.41C270.82 60.2 271.22 58.97 271.39 58.28C271.15 58.58 270.85 58.98 270.48 59.49C270.31 59.73 270.19 59.89 270.15 59.93C265.38 66.67 260.29 72.19 254.64 76.74C252.51 78.57 250.41 79.31 248.03 79.06C244.76 78.78 242.81 77.02 242.26 73.84C241.83 71.99 241.88 70.12 242.4 68.29C242.92 66.61 243.45 64.87 244.25 63.15C247.2 56.18 250.94 49.76 255.36 44.07C257.09 41.77 258.96 39.86 260.91 38.39C265.11 35 269.89 34.85 273.99 38C274.42 38.33 274.84 38.63 275.47 39.02C276.09 38.01 276.72 37.01 277.35 36.01C280.14 31.55 283.03 26.93 285.2 22.08C285.6 21.28 285.97 20.5 286.35 19.73C287.09 18.19 287.86 16.6 288.73 15.03C290.14 12.63 291.57 12.08 293.68 13.14C296.08 14.27 296.62 15.83 295.62 18.69C295.21 19.65 294.82 20.44 294.28 21.37C291.77 25.77 289.98 30.41 288.07 35.6C284.45 45.34 280.39 56.46 276.63 66.93C276.53 67.32 276.42 67.75 276.31 68.18C275.75 70.31 275.23 72.33 275.23 74.43C275.23 75.41 275.45 76.07 275.85 76.34C276.33 76.65 277.09 76.43 277.65 76.19C279.26 75.62 280.83 74.83 282.79 73.62C291.63 68.57 299.86 62.12 307.26 54.46C307.67 54.11 308 53.75 308.33 53.41C308.78 52.94 309.24 52.45 309.8 52.06C310.53 51.33 311.47 50.94 312.46 51C313.59 51.07 314.69 51.71 315.55 52.81C316.12 53.56 316.18 54.43 315.72 55.2C315.18 56.02 314.51 56.81 313.87 57.58C306.31 66.32 297.47 73.7 287.59 79.55C285.45 80.93 282.93 82.03 280.31 82.72C279.98 82.77 279.69 82.82 279.39 82.88C278.7 83 277.99 83.13 277.32 83.13L277.33 83.07ZM268.45 69.31C267.46 73.49 267.85 76.73 269.61 78.95C271.2 80.96 273.94 82.06 277.33 82.06C277.91 82.06 278.58 81.94 279.22 81.83C279.53 81.78 279.83 81.72 280.12 81.68C282.58 81.03 285 79.97 287.07 78.64C296.87 72.83 305.62 65.52 313.1 56.89C313.73 56.13 314.38 55.35 314.88 54.6C315.12 54.2 315.08 53.78 314.77 53.36C314.09 52.5 313.25 51.99 312.41 51.94C311.71 51.9 311.03 52.18 310.45 52.76C309.91 53.16 309.5 53.59 309.06 54.04C308.72 54.4 308.36 54.77 307.95 55.12C300.52 62.82 292.21 69.32 283.3 74.42C281.29 75.65 279.66 76.47 278.02 77.06C276.92 77.54 275.99 77.57 275.31 77.12C274.6 76.65 274.23 75.73 274.23 74.38C274.23 72.15 274.77 70.08 275.34 67.88C275.45 67.45 275.56 67.02 275.67 66.59C279.44 56.08 283.5 44.95 287.13 35.21C289.05 29.99 290.85 25.3 293.4 20.84C293.91 19.94 294.29 19.18 294.67 18.29C295.5 15.92 295.16 14.91 293.23 14C291.81 13.29 290.86 13.33 289.58 15.49C288.73 17.03 287.97 18.61 287.23 20.13C286.85 20.91 286.48 21.7 286.08 22.48C283.89 27.38 280.99 32.02 278.18 36.52C277.47 37.66 276.75 38.8 276.05 39.94L275.8 40.35L275.38 40.11C274.45 39.58 273.91 39.17 273.38 38.78C269.66 35.93 265.34 36.07 261.51 39.15C259.61 40.57 257.81 42.42 256.14 44.65C251.77 50.27 248.07 56.62 245.15 63.53C244.38 65.21 243.85 66.91 243.35 68.55C242.88 70.21 242.83 71.91 243.23 73.62C243.71 76.36 245.3 77.8 248.12 78.04C250.24 78.26 252.04 77.62 253.99 75.95C259.58 71.45 264.61 66 269.38 59.27C269.46 59.17 269.55 59.05 269.66 58.89C270.98 57.04 271.55 56.45 272.15 56.77C272.68 57.05 272.88 57.62 270.9 62.73C270.71 63.3 270.2 64.63 269.67 66.04C269.17 67.36 268.65 68.73 268.45 69.31ZM250.66 70.61C250.56 70.61 250.45 70.61 250.34 70.58L250.14 70.55L250.02 70.39C249.14 69.21 249.7 67.95 250.1 67.04L250.22 66.78C253.76 58.51 257.7 51.88 262.26 46.5C263.98 44.31 265.6 42.9 267.49 41.96C268.27 41.57 269.08 41.55 269.73 41.91C270.34 42.25 270.73 42.88 270.81 43.66C270.94 45.52 271.09 47.61 269.68 49.59C263.47 58.12 258.16 64.32 252.45 69.68L252.41 69.72C252.32 69.79 252.23 69.87 252.14 69.94C251.77 70.25 251.33 70.62 250.66 70.62V70.61ZM268.71 42.64C268.47 42.64 268.2 42.71 267.93 42.84C266.18 43.72 264.67 45.04 263.03 47.12C258.53 52.43 254.64 58.98 251.14 67.16L251.02 67.43C250.63 68.3 250.38 68.99 250.71 69.6C250.98 69.58 251.18 69.43 251.5 69.16C251.6 69.08 251.69 69 251.79 68.92C257.44 63.6 262.71 57.46 268.87 48.99C270.07 47.31 269.94 45.49 269.82 43.73C269.78 43.29 269.57 42.95 269.25 42.77C269.09 42.68 268.91 42.64 268.72 42.64H268.71Z" fill="#231F20"/>
<path d="M331.22 88.42C330.7 87.12 330.83 85.82 331.22 84.52C332.52 79.71 335.25 70.61 336.55 65.8C336.81 64.76 339.28 57.74 342.27 49.42C338.76 49.68 336.16 49.81 335.9 49.81C334.73 49.68 333.56 49.68 332.65 49.03C331.74 48.38 331.09 47.73 331.22 46.69C331.22 45.39 332.13 45.13 333.17 45C335.64 44.74 338.11 44.48 340.58 44.35L344.09 44.09C347.73 34.08 351.63 23.81 353.06 21.34C353.58 20.3 353.97 19.26 354.62 18.35C355.92 15.88 358.39 15.75 360.08 17.96C360.6 18.74 360.73 19.52 360.47 20.3C360.08 21.34 359.56 22.38 359.17 23.42C357.48 27.32 355.66 31.22 354.1 35.12L351.11 43.7C355.01 43.44 358.52 43.18 359.43 43.18C361.25 43.05 363.07 42.92 364.89 42.92C365.8 42.92 366.71 43.18 367.49 44.09C368.01 44.74 368.14 45.52 367.49 46.17C366.58 47.34 365.41 47.6 363.98 47.73L349.42 48.9C345.13 61.51 339.15 79.32 337.2 85.3C336.94 86.34 336.55 87.51 336.16 88.55C335.77 89.46 334.99 90.11 333.95 90.11C332.65 90.11 331.74 89.59 331.22 88.42Z" fill="#231F20"/>
<path d="M333.95 90.61C332.42 90.61 331.35 89.94 330.76 88.62V88.6C330.25 87.35 330.25 86.01 330.74 84.37C331.39 81.97 332.41 78.44 333.4 75.01C334.39 71.59 335.41 68.06 336.06 65.66C336.39 64.32 340.05 54.1 341.53 49.96C338.45 50.18 336.16 50.3 335.89 50.3L335.28 50.24C334.27 50.15 333.22 50.05 332.35 49.43C331.4 48.75 330.55 47.94 330.71 46.62C330.71 44.79 332.32 44.59 333.09 44.5C335.55 44.24 338.06 43.98 340.54 43.85L343.72 43.61C346.39 36.26 350.99 23.89 352.62 21.08C352.75 20.81 352.89 20.52 353.02 20.23C353.36 19.5 353.71 18.74 354.2 18.05C354.86 16.78 355.91 16 357.1 15.9C358.31 15.8 359.53 16.44 360.46 17.65C361.09 18.59 361.24 19.52 360.93 20.45C360.73 21 360.49 21.52 360.26 22.05C360.04 22.56 359.81 23.07 359.62 23.59C359.05 24.91 358.47 26.21 357.89 27.51C356.75 30.07 355.58 32.71 354.54 35.3L351.81 43.14L353.82 43C356.55 42.81 358.71 42.67 359.41 42.67C361.17 42.54 363.03 42.41 364.87 42.41C366.1 42.41 367.07 42.85 367.85 43.75C368.6 44.69 368.59 45.74 367.82 46.51C366.78 47.85 365.36 48.09 364 48.21L349.76 49.35C345.44 62.06 339.58 79.51 337.65 85.43C337.36 86.6 336.92 87.86 336.6 88.7C336.09 89.89 335.09 90.58 333.92 90.58L333.95 90.61ZM331.68 88.22C332.11 89.18 332.81 89.6 333.95 89.6C334.72 89.6 335.36 89.14 335.7 88.34C336 87.55 336.42 86.33 336.71 85.17C338.67 79.16 344.61 61.46 348.94 48.73L349.05 48.42L363.94 47.22C365.4 47.09 366.33 46.83 367.1 45.85C367.54 45.4 367.53 44.92 367.1 44.39C366.53 43.72 365.82 43.41 364.89 43.41C363.09 43.41 361.25 43.54 359.47 43.67C358.76 43.67 356.51 43.83 353.91 44L350.39 44.24L353.63 34.95C354.68 32.32 355.86 29.67 357 27.1C357.58 25.8 358.15 24.51 358.71 23.21C358.9 22.71 359.13 22.18 359.36 21.65C359.58 21.14 359.81 20.63 360 20.11C360.2 19.5 360.09 18.87 359.66 18.22C358.95 17.3 358.08 16.81 357.19 16.88C356.35 16.95 355.59 17.55 355.05 18.56C354.58 19.23 354.26 19.91 353.93 20.63C353.79 20.93 353.65 21.23 353.5 21.54C352.29 23.63 349.12 31.68 344.55 44.24L344.44 44.54L340.61 44.82C338.15 44.95 335.65 45.21 333.24 45.47C332.05 45.62 331.72 45.89 331.72 46.66C331.63 47.4 331.95 47.89 332.94 48.59C333.59 49.06 334.46 49.14 335.38 49.22C335.57 49.24 335.76 49.26 335.95 49.28C336.11 49.28 338.67 49.15 342.23 48.89L343 48.83L342.74 49.55C339.45 58.7 337.26 64.96 337.03 65.88C336.38 68.3 335.35 71.84 334.36 75.26C333.37 78.68 332.35 82.21 331.7 84.61C331.28 86.03 331.27 87.16 331.68 88.19V88.22Z" fill="#231F20"/>
<path d="M353.32 85.9501C353.58 84.5201 354.1 83.0901 354.49 81.7901C358.13 69.9601 362.81 58.7801 368.27 47.7301C371.26 41.7501 373.99 35.6401 376.85 29.6601C377.63 27.9701 378.41 26.2801 378.93 24.5901C380.1 21.2101 381.79 18.0901 381.4 14.3201C381.27 13.0201 382.31 12.1101 383.48 11.9801C385.17 11.7201 386.73 12.5001 387.12 13.8001C387.25 14.5801 387.38 15.4901 387.38 16.2701C387.38 19.2601 386.73 22.1201 385.82 24.8501C384.78 28.4901 383.48 32.0001 382.05 35.5101C379.58 41.2301 376.98 46.8201 374.38 52.4101C372.17 57.4801 374.12 55.4001 374.9 54.7501C376.72 53.0601 378.54 51.5001 380.49 49.9401C382.05 48.6401 383.87 48.1201 385.95 48.1201C389.72 48.3801 391.67 50.3301 391.54 54.1001C391.41 56.0501 391.02 58.0001 390.5 59.8201C390.11 61.5101 389.07 65.0201 388.68 66.7101C388.03 69.3101 387.25 71.7801 387.25 74.3801C387.25 76.59 388.29 77.5001 390.37 76.59C392.19 75.94 393.88 75.0301 395.57 73.9901C404.67 68.7901 412.86 62.2901 420.14 54.7501C421.05 53.9701 421.7 53.0601 422.61 52.4101C424.17 50.8501 426.25 51.2401 427.68 53.0601C428.07 53.5801 428.2 54.2301 427.81 54.8801C427.29 55.6601 426.64 56.4401 425.99 57.2201C418.45 65.9301 409.74 73.2101 399.86 79.0601C397.65 80.4901 395.18 81.5301 392.71 82.1801C391.8 82.3101 390.76 82.5701 389.85 82.5701C383.74 82.5701 378.15 79.0601 380.49 69.1801C381.27 66.3201 381.92 63.3301 382.7 60.3401C382.96 59.4301 383.48 58.5201 382.7 57.4801C381.14 58.1301 380.23 59.4301 379.06 60.6001C372.82 67.1001 367.49 74.3801 363.33 82.4401C362.29 84.5201 360.73 86.4701 359.3 88.4201C358.26 90.1101 356.7 90.37 355.01 89.59C353.71 89.0701 352.93 87.51 353.32 85.9501Z" fill="#231F20"/>
<path d="M356.72 90.5C356.12 90.5 355.47 90.35 354.79 90.04C353.24 89.42 352.39 87.61 352.82 85.84C353.02 84.75 353.36 83.68 353.69 82.65C353.8 82.31 353.91 81.97 354.01 81.64C357.41 70.6 361.92 59.43 367.82 47.5C369.69 43.75 371.49 39.9 373.23 36.17C374.28 33.92 375.33 31.67 376.4 29.44C377.16 27.8 377.94 26.1 378.45 24.44C378.7 23.71 378.97 23 379.24 22.3C380.24 19.69 381.19 17.22 380.9 14.37C380.73 12.69 382.07 11.63 383.42 11.48C385.33 11.19 387.13 12.12 387.59 13.65C387.73 14.46 387.87 15.42 387.87 16.26C387.87 18.98 387.37 21.75 386.28 25C385.36 28.21 384.16 31.61 382.5 35.69C380.01 41.46 377.37 47.13 374.82 52.61C374.31 53.78 374.06 54.48 373.95 54.89C374.08 54.78 374.2 54.67 374.29 54.6C374.39 54.51 374.49 54.42 374.57 54.36C376.34 52.72 378.17 51.14 380.17 49.54C381.73 48.24 383.62 47.61 385.94 47.61C390.07 47.89 392.17 50.14 392.03 54.11C391.91 55.96 391.55 57.92 390.97 59.95C390.78 60.78 390.41 62.11 390.06 63.39C389.71 64.66 389.35 65.98 389.15 66.81C389.04 67.26 388.92 67.69 388.81 68.13C388.26 70.26 387.73 72.27 387.73 74.37C387.73 75.35 387.95 76.01 388.35 76.28C388.83 76.59 389.59 76.37 390.14 76.13C391.74 75.56 393.32 74.77 395.28 73.56C404.12 68.51 412.35 62.06 419.75 54.4C420.16 54.05 420.49 53.69 420.82 53.35C421.27 52.88 421.73 52.39 422.29 52C423.01 51.27 423.97 50.88 424.95 50.94C426.08 51.01 427.18 51.65 428.04 52.75C428.61 53.5 428.66 54.37 428.21 55.14C427.66 55.97 426.99 56.77 426.34 57.54C418.8 66.26 409.96 73.64 400.08 79.49C397.94 80.87 395.42 81.97 392.8 82.66C392.47 82.71 392.18 82.76 391.88 82.82C391.19 82.94 390.48 83.07 389.81 83.07C386.11 83.07 383.09 81.83 381.31 79.58C379.35 77.1 378.9 73.57 379.97 69.07C380.41 67.47 380.79 65.88 381.2 64.2C381.52 62.88 381.84 61.55 382.19 60.22C382.24 60.05 382.29 59.9 382.34 59.75C382.56 59.1 382.69 58.63 382.48 58.13C381.58 58.61 380.9 59.34 380.19 60.11C379.93 60.39 379.67 60.68 379.39 60.95C373.03 67.57 367.77 74.88 363.75 82.67C362.87 84.42 361.63 86.09 360.44 87.7L359.68 88.72C358.96 89.9 357.92 90.51 356.7 90.51L356.72 90.5ZM384.13 12.42C383.94 12.42 383.75 12.43 383.56 12.46C382.67 12.56 381.8 13.22 381.9 14.26C382.22 17.35 381.19 20.05 380.18 22.65C379.91 23.34 379.65 24.03 379.4 24.74C378.87 26.45 378.07 28.18 377.3 29.86C376.23 32.09 375.18 34.34 374.13 36.59C372.39 40.33 370.59 44.19 368.71 47.95C362.84 59.83 358.34 70.95 354.96 81.93C354.86 82.26 354.75 82.6 354.64 82.95C354.32 83.96 353.99 85 353.8 86.03V86.06C353.47 87.33 354.09 88.68 355.18 89.11C356.78 89.85 358.01 89.52 358.86 88.14L359.64 87.08C360.81 85.5 362.03 83.88 362.87 82.2C366.94 74.32 372.26 66.93 378.69 60.24C378.96 59.96 379.22 59.69 379.47 59.42C380.32 58.5 381.2 57.55 382.5 57.01L382.86 56.86L383.09 57.17C383.9 58.25 383.57 59.25 383.3 60.05C383.25 60.19 383.21 60.33 383.17 60.47C382.83 61.78 382.51 63.11 382.19 64.42C381.8 66.03 381.4 67.7 380.96 69.3C379.97 73.47 380.36 76.72 382.12 78.95C383.71 80.96 386.45 82.06 389.84 82.06C390.42 82.06 391.09 81.94 391.73 81.83C392.04 81.78 392.34 81.72 392.63 81.68C395.09 81.03 397.51 79.97 399.58 78.64C409.39 72.83 418.14 65.52 425.6 56.89C426.22 56.14 426.87 55.36 427.38 54.6C427.62 54.2 427.58 53.78 427.27 53.36C426.59 52.5 425.75 51.99 424.91 51.94C424.21 51.9 423.53 52.18 422.95 52.76C422.41 53.16 421.99 53.59 421.56 54.04C421.22 54.4 420.86 54.77 420.45 55.12C413.02 62.82 404.71 69.32 395.8 74.42C393.79 75.66 392.16 76.47 390.52 77.06C389.41 77.54 388.49 77.57 387.81 77.12C387.1 76.65 386.73 75.73 386.73 74.38C386.73 72.15 387.27 70.08 387.84 67.89C387.95 67.46 388.06 67.03 388.17 66.59C388.37 65.74 388.73 64.42 389.08 63.13C389.43 61.86 389.79 60.54 389.99 59.71C390.56 57.72 390.9 55.83 391.02 54.07C391.14 50.65 389.46 48.87 385.9 48.62C383.85 48.62 382.17 49.18 380.79 50.33C378.81 51.91 376.99 53.48 375.22 55.12C375.12 55.2 375.04 55.28 374.94 55.36C374.28 55.94 373.66 56.49 373.13 56.1C372.65 55.75 372.65 55.08 373.9 52.21C376.45 46.72 379.09 41.06 381.57 35.31C383.21 31.28 384.4 27.9 385.32 24.71C386.37 21.55 386.86 18.87 386.86 16.27C386.86 15.5 386.73 14.59 386.61 13.88C386.35 13.02 385.32 12.43 384.11 12.43L384.13 12.42Z" fill="#231F20"/>
<path d="M416.5 78.15C415.07 76.46 413.25 72.95 414.68 67.88C417.41 58.65 421.96 50.46 428.72 43.7C431.32 40.97 434.44 38.89 438.21 37.72C440.16 37.07 441.98 37.33 443.8 38.24C446.4 39.41 447.44 41.36 447.31 44.09C447.05 46.43 446.01 48.51 444.97 50.46C441.2 57.09 436.26 62.68 430.41 67.62C427.94 69.7 425.21 71.52 422.48 73.21C421.31 73.86 421.31 75.16 422.48 75.94C423.78 76.72 425.08 77.11 426.64 76.72C428.33 76.33 430.15 75.94 431.84 75.29C441.59 71.52 455.11 63.07 463.04 56.31C464.34 55.27 465.38 53.97 466.55 52.8C468.11 51.24 469.54 51.11 471.36 52.15C472.27 52.8 472.79 54.1 472.27 55.14C472.01 55.66 471.62 56.31 471.23 56.83C469.67 58.52 468.24 60.34 466.55 61.77C458.75 68.66 445.49 77.11 435.87 81.01C433.27 82.18 430.41 83.09 426.9 83.09C423.13 82.83 419.36 81.4 416.5 78.15ZM422.87 65.41C423.39 65.54 423.91 65.15 424.43 64.76C430.02 60.08 434.83 54.75 438.47 48.51C439.25 47.08 440.81 45.78 439.9 43.7C438.21 43.83 436.91 44.87 435.61 45.91C429.63 50.85 425.6 57.35 422.74 64.63C422.61 64.89 422.74 65.15 422.87 65.41Z" fill="#231F20"/>
<path d="M426.9 83.59C422.52 83.29 418.8 81.52 416.12 78.48C415 77.15 412.59 73.47 414.2 67.74C417.05 58.1 421.82 49.89 428.37 43.34C431.14 40.43 434.41 38.37 438.07 37.24C440.03 36.59 441.98 36.77 444.03 37.79C446.72 39 447.96 41.07 447.82 44.11C447.55 46.54 446.53 48.61 445.42 50.69C441.8 57.05 437 62.71 430.74 68C428.01 70.3 425.04 72.22 422.75 73.63C422.34 73.86 422.12 74.16 422.11 74.49C422.1 74.86 422.33 75.23 422.76 75.52C424.12 76.33 425.25 76.55 426.52 76.23L427.01 76.12C428.56 75.76 430.16 75.4 431.66 74.82C440.78 71.29 454.43 62.99 462.72 55.93C463.57 55.25 464.32 54.44 465.05 53.66C465.43 53.25 465.81 52.84 466.2 52.45C467.88 50.77 469.55 50.54 471.61 51.72C472.69 52.49 473.38 54.05 472.72 55.37C472.42 55.97 472.01 56.63 471.63 57.14C471.15 57.66 470.72 58.16 470.28 58.65C469.21 59.86 468.1 61.12 466.87 62.16C458.73 69.35 445.48 77.66 436.05 81.48C432.8 82.94 429.97 83.6 426.89 83.6L426.9 83.59ZM416.88 77.82C420.04 81.41 424.09 82.39 426.94 82.59C429.84 82.59 432.54 81.96 435.67 80.55C445.02 76.76 458.15 68.53 466.23 61.39C467.41 60.39 468.45 59.22 469.54 57.97C469.98 57.47 470.42 56.97 470.87 56.48C471.18 56.06 471.56 55.44 471.83 54.91C472.25 54.08 471.76 53.04 471.08 52.55C469.46 51.63 468.28 51.78 466.91 53.15C466.52 53.54 466.15 53.94 465.78 54.34C465.03 55.15 464.25 55.99 463.36 56.7C454.87 63.94 441.4 72.13 432.03 75.76C430.47 76.36 428.83 76.74 427.24 77.1L426.76 77.21C425.24 77.59 423.84 77.33 422.23 76.37C421.48 75.87 421.08 75.18 421.11 74.45C421.14 73.77 421.55 73.15 422.24 72.77C424.48 71.38 427.41 69.49 430.09 67.23C436.26 62.02 440.99 56.45 444.54 50.2C445.6 48.22 446.57 46.25 446.82 44.02C446.94 41.43 445.92 39.72 443.6 38.68C441.76 37.76 440.1 37.6 438.37 38.18C434.87 39.27 431.75 41.23 429.08 44.03C422.64 50.47 417.96 58.53 415.16 68.01C413.68 73.26 415.87 76.61 416.88 77.81V77.82ZM423.08 65.93C422.97 65.93 422.86 65.92 422.75 65.89L422.53 65.83L422.43 65.63C422.28 65.33 422.06 64.89 422.3 64.4C425.48 56.3 429.74 50.11 435.3 45.52C436.64 44.45 438.03 43.34 439.87 43.2L440.22 43.17L440.36 43.5C441.18 45.37 440.24 46.74 439.49 47.84C439.28 48.14 439.08 48.44 438.91 48.75C435.42 54.73 430.79 60.09 424.75 65.14C424.24 65.52 423.7 65.93 423.08 65.93ZM439.57 44.24C438.21 44.47 437.09 45.36 435.92 46.3C430.5 50.78 426.34 56.84 423.2 64.81C423.2 64.84 423.2 64.88 423.2 64.92C423.47 64.85 423.8 64.6 424.12 64.36C430.05 59.39 434.61 54.12 438.03 48.26C438.21 47.94 438.43 47.61 438.65 47.28C439.32 46.29 439.91 45.43 439.56 44.25L439.57 44.24Z" fill="#231F20"/>
<path d="M479.31 88.94C478.92 86.99 480.35 85.69 482.3 86.34C482.95 86.6 483.6 86.73 483.99 87.25C485.81 88.68 487.63 88.16 489.45 87.25C489.58 87.25 490.23 86.86 490.88 86.47C490.49 86.21 489.97 85.95 489.97 85.82C488.28 83.87 488.8 81.79 489.32 79.71C490.23 76.98 491.14 74.12 492.18 71.39C495.69 61.9 499.2 52.54 502.84 43.05C505.44 36.68 508.17 30.31 511.68 24.46C512.46 23.16 513.24 21.99 512.33 20.43C512.07 20.04 512.2 19.52 512.2 19C512.85 16.14 513.63 13.28 514.8 10.55C515.84 8.47003 517.66 7.95003 519.74 9.12003C520.52 9.64003 521.17 10.42 522.08 11.2C525.85 8.08003 529.36 5.09003 533.52 3.01003C536.25 1.58003 539.11 0.280032 542.36 0.540032C543.01 0.670032 543.66 0.670032 544.31 0.800032C548.86 1.58003 550.94 4.70003 550.03 9.25003C549.64 11.59 548.73 13.54 547.56 15.62C545.35 19.78 542.49 23.55 539.37 27.19C538.85 27.71 536.77 29.79 535.08 30.96C536.64 31.35 538.33 31.87 538.85 32.13C545.48 35.25 548.08 40.71 546.39 47.73C545.09 52.8 542.62 57.22 539.63 61.25C535.47 66.97 530.4 71.91 524.81 76.07C515.58 82.96 505.44 88.16 494.65 92.19C491.4 93.49 488.15 94.14 484.64 93.75C481.65 93.36 479.83 91.67 479.31 88.94ZM511.42 76.2C518.7 71.65 525.33 66.45 531.05 60.21C534.43 56.57 537.29 52.54 539.11 47.99C539.89 46.17 540.28 44.22 540.28 42.27C540.15 39.02 538.2 36.68 535.08 36.16C532.61 35.64 530.27 36.03 528.19 37.72C524.03 40.97 519.61 43.7 514.8 45.65C513.5 46.3 512.46 46.69 511.81 47.08L510.38 50.46C505.83 61.12 496.21 83.35 495.82 84.65C501.8 82.05 506.74 79.19 511.42 76.2ZM518.31 34.08C525.07 32 526.37 31.22 531.31 26.02C534.56 22.51 537.55 18.87 539.89 14.71C541.06 12.76 541.97 10.68 542.88 8.60003C543.14 8.08003 543.27 7.30003 542.62 6.78003C542.1 6.26003 541.45 6.39003 540.8 6.52003C539.89 6.78003 538.98 7.17003 538.07 7.56003C531.44 10.81 526.11 15.36 521.43 21.08C521.04 21.6 520.65 22.12 520.52 22.64C519.48 25.76 518.44 28.88 517.53 32C517.4 32.26 517.14 33.43 516.75 34.47C517.53 34.21 518.18 34.08 518.31 34.08Z" fill="#231F20"/>
<path d="M486.68 94.36C485.98 94.36 485.28 94.32 484.58 94.24C481.37 93.82 479.38 92.02 478.81 89.03C478.59 87.92 478.87 86.92 479.59 86.29C480.31 85.65 481.35 85.5 482.45 85.87C482.61 85.93 482.74 85.98 482.87 86.03C483.4 86.22 483.94 86.41 484.34 86.9C485.88 88.08 487.41 87.72 489.22 86.81L489.38 86.76C489.48 86.72 489.68 86.6 489.92 86.47C489.74 86.35 489.6 86.23 489.53 86.08C487.75 83.95 488.33 81.64 488.84 79.6L489.4 77.9C490.13 75.69 490.88 73.41 491.72 71.22C495.54 60.89 499.03 51.62 502.38 42.88C504.77 37.02 507.62 30.27 511.26 24.21L511.35 24.06C512.17 22.7 512.6 21.88 511.91 20.69C511.64 20.28 511.67 19.8 511.7 19.37C511.7 19.25 511.72 19.13 511.72 19.01V18.9C512.27 16.52 513.06 13.4 514.36 10.36C514.94 9.21001 515.74 8.45001 516.71 8.16001C517.71 7.85001 518.84 8.04001 520 8.69001C520.54 9.05001 520.99 9.48001 521.46 9.94001C521.66 10.14 521.88 10.34 522.1 10.55L522.4 10.3C525.96 7.35001 529.33 4.56001 533.3 2.57001C536.02 1.15001 538.97 -0.229991 542.4 0.0500087C542.77 0.120009 543.08 0.150009 543.39 0.180009C543.73 0.210009 544.07 0.250009 544.41 0.320009C546.74 0.720009 548.54 1.75001 549.61 3.30001C550.69 4.87001 551.01 6.97001 550.53 9.36001C550.11 11.89 549.07 13.99 548.01 15.88C546.08 19.52 543.46 23.22 539.76 27.53C538.19 29.1 537.04 30.11 536.22 30.76C537.4 31.08 538.6 31.46 539.08 31.7C545.85 34.89 548.62 40.63 546.88 47.87C545.7 52.48 543.46 56.96 540.03 61.57C536.02 67.09 530.99 72.11 525.11 76.49C516.31 83.06 506.41 88.35 494.82 92.68C491.95 93.83 489.31 94.39 486.68 94.39V94.36ZM481.32 86.67C480.9 86.67 480.53 86.79 480.25 87.04C479.81 87.43 479.64 88.09 479.79 88.84C480.28 91.41 481.93 92.89 484.69 93.25C487.86 93.6 490.96 93.12 494.45 91.72C505.95 87.42 515.78 82.17 524.5 75.66C530.31 71.34 535.26 66.39 539.21 60.95C542.56 56.44 544.74 52.07 545.89 47.6C547.53 40.78 545.02 35.59 538.62 32.58C538.14 32.34 536.49 31.83 534.94 31.44L533.87 31.17L534.78 30.54C535.53 30.02 536.87 28.95 538.99 26.83C542.61 22.6 545.2 18.95 547.1 15.37C548.12 13.55 549.12 11.55 549.52 9.15001C549.95 7.01001 549.68 5.18001 548.76 3.84001C547.84 2.50001 546.31 1.64001 544.21 1.28001C543.89 1.22001 543.58 1.19001 543.27 1.16001C542.93 1.13001 542.59 1.09001 542.24 1.02001C539.13 0.780009 536.33 2.08001 533.73 3.44001C529.85 5.38001 526.52 8.13001 523.01 11.05L522.05 11.84L521.73 11.57C521.36 11.26 521.04 10.94 520.73 10.64C520.27 10.2 519.88 9.81001 519.44 9.52001C518.56 9.02001 517.69 8.87001 516.96 9.09001C516.25 9.31001 515.67 9.87001 515.22 10.76C513.97 13.67 513.2 16.71 512.67 19.04C512.67 19.16 512.67 19.29 512.65 19.41C512.63 19.72 512.61 19.99 512.71 20.14C513.75 21.92 512.94 23.26 512.16 24.55L512.07 24.7C508.47 30.7 505.64 37.41 503.26 43.22C499.91 51.94 496.43 61.21 492.61 71.55C491.78 73.73 491.03 76 490.31 78.19L489.76 79.85C489.27 81.82 488.79 83.72 490.31 85.47L490.41 85.59C490.5 85.65 490.63 85.73 490.73 85.79C490.86 85.87 490.99 85.95 491.12 86.03L491.78 86.47L491.1 86.88C490.13 87.46 489.79 87.65 489.57 87.71C487.79 88.59 485.7 89.25 483.64 87.62L483.55 87.53C483.33 87.24 482.97 87.11 482.5 86.94C482.36 86.89 482.22 86.84 482.07 86.78C481.8 86.69 481.53 86.64 481.28 86.64L481.32 86.67ZM495.03 85.54L495.34 84.51C495.62 83.57 500.35 72.57 504.92 61.93C506.79 57.59 508.58 53.42 509.92 50.26L511.41 46.73L511.55 46.65C511.93 46.42 512.43 46.19 513.01 45.93C513.47 45.72 514 45.49 514.57 45.2C519.09 43.37 523.43 40.79 527.88 37.32C529.95 35.64 532.41 35.08 535.18 35.66C538.48 36.21 540.64 38.73 540.78 42.24C540.78 44.31 540.37 46.3 539.57 48.18C537.88 52.41 535.21 56.46 531.42 60.54C526.02 66.43 519.56 71.69 511.69 76.61C507.87 79.05 502.64 82.22 496.02 85.1L495.03 85.53V85.54ZM512.2 47.43L510.84 50.66C509.49 53.82 507.7 57.99 505.83 62.33C502.14 70.91 498.04 80.47 496.72 83.71C502.76 80.99 507.58 78.07 511.15 75.78C518.94 70.9 525.33 65.7 530.68 59.87C534.39 55.87 536.99 51.93 538.64 47.8C539.39 46.04 539.77 44.18 539.77 42.27C539.65 39.24 537.86 37.13 534.99 36.65C532.47 36.12 530.35 36.6 528.5 38.11C523.97 41.65 519.56 44.26 514.98 46.12C514.43 46.4 513.89 46.64 513.42 46.85C512.94 47.07 512.52 47.26 512.2 47.43ZM515.91 35.27L516.28 34.29C516.49 33.72 516.67 33.11 516.8 32.63C516.93 32.16 517 31.92 517.08 31.78C517.96 28.73 519.02 25.56 520.04 22.48C520.18 21.9 520.61 21.33 521.03 20.78C526.02 14.68 531.52 10.22 537.85 7.11001C538.78 6.71001 539.72 6.31001 540.66 6.04001C541.4 5.89001 542.26 5.72001 542.97 6.43001C543.78 7.07001 543.69 8.10001 543.32 8.83001C542.43 10.87 541.5 13 540.31 14.97C538.27 18.59 535.6 22.11 531.67 26.36C526.69 31.6 525.34 32.44 518.45 34.56L518.31 34.58C518.19 34.59 517.6 34.71 516.9 34.94L515.9 35.27H515.91ZM541.64 6.90001C541.43 6.90001 541.19 6.94001 540.89 7.00001C540.05 7.24001 539.14 7.63001 538.26 8.01001C532.08 11.04 526.69 15.42 521.81 21.39C521.47 21.84 521.1 22.33 521 22.75C519.97 25.85 518.91 29.02 518 32.13C517.93 32.29 517.84 32.61 517.76 32.9C517.69 33.14 517.61 33.42 517.52 33.72C517.81 33.65 518.06 33.6 518.21 33.58C524.89 31.52 526.1 30.77 530.94 25.67C534.82 21.48 537.44 18.02 539.45 14.46C540.61 12.52 541.53 10.43 542.42 8.39001C542.58 8.07001 542.76 7.52001 542.31 7.16001C542.11 6.97001 541.9 6.90001 541.65 6.90001H541.64Z" fill="#231F20"/>
<path d="M561.99 76.07C561.73 74.51 561.73 72.82 561.99 71.26C562.12 70.22 562.77 69.05 561.99 67.88C560.43 68.53 559.65 70.09 558.48 71.13C556.4 73.21 554.45 75.42 552.24 77.5C549.77 79.84 544.96 79.06 544.31 74.25C544.05 71.65 544.57 69.31 545.22 66.97C547.56 59.43 551.2 52.54 556.53 46.56C557.96 44.87 559.78 43.44 561.73 42.14C565.5 39.67 571.09 39.8 574.21 43.18C576.55 45.78 577.2 46.17 575.51 49.42C572.65 55.01 570.44 60.73 568.88 66.71C568.23 69.31 567.45 71.78 567.45 74.38C567.45 76.59 568.49 77.5 570.57 76.59C572.39 75.94 574.08 75.03 575.77 73.99C584.87 68.79 593.06 62.29 600.34 54.75C601.25 53.97 601.9 53.06 602.81 52.41C604.37 50.85 606.45 51.24 607.88 53.06C608.27 53.58 608.4 54.23 608.01 54.88C607.49 55.66 606.84 56.44 606.19 57.22C598.65 65.93 589.94 73.21 580.06 79.06C577.85 80.49 575.38 81.53 572.91 82.18C572 82.31 570.96 82.57 570.05 82.57C565.76 82.57 562.9 80.23 561.99 76.07ZM553.28 66.58C553.93 66.06 554.45 65.67 554.97 65.15C559 60.86 562.77 56.31 566.02 51.37C566.93 50.07 568.36 49.03 568.1 47.21C567.97 46.43 566.02 47.34 563.68 49.42L563.29 49.68C558.61 54.36 555.23 59.82 553.02 66.06C552.89 66.19 553.15 66.32 553.28 66.58Z" fill="#231F20"/>
<path d="M570.05 83.07C565.58 83.07 562.46 80.56 561.5 76.18V76.16C561.23 74.56 561.23 72.79 561.5 71.19C561.53 70.93 561.6 70.64 561.68 70.34C561.84 69.7 561.98 69.12 561.78 68.56C561.09 68.97 560.56 69.59 560 70.25C559.63 70.68 559.25 71.13 558.82 71.52C558.02 72.33 557.21 73.17 556.4 74.02C555.18 75.3 553.93 76.62 552.59 77.88C551.2 79.2 549.12 79.64 547.29 79C545.39 78.33 544.13 76.63 543.82 74.34C543.54 71.52 544.15 69 544.74 66.86C547.21 58.92 551.05 51.99 556.16 46.25C557.45 44.73 559.13 43.3 561.46 41.75C565.69 38.98 571.45 39.47 574.58 42.87L574.99 43.32C577.14 45.7 577.64 46.45 575.96 49.68C573.07 55.33 570.91 60.95 569.37 66.87C569.26 67.3 569.15 67.73 569.04 68.16C568.48 70.29 567.96 72.31 567.96 74.41C567.96 75.39 568.18 76.05 568.58 76.32C569.06 76.63 569.82 76.41 570.37 76.17C571.97 75.6 573.55 74.81 575.51 73.6C584.35 68.55 592.58 62.1 599.98 54.44C600.39 54.09 600.72 53.73 601.05 53.39C601.5 52.92 601.96 52.43 602.52 52.04C603.24 51.31 604.19 50.92 605.18 50.98C606.31 51.05 607.41 51.69 608.27 52.79C608.84 53.54 608.89 54.41 608.44 55.18C607.9 56 607.23 56.79 606.59 57.57C599.03 66.3 590.2 73.69 580.32 79.54C578.18 80.92 575.66 82.02 573.04 82.71C572.71 82.76 572.42 82.81 572.12 82.87C571.43 82.99 570.72 83.12 570.05 83.12V83.07ZM562.48 75.97C563.34 79.9 566.03 82.06 570.05 82.06C570.63 82.06 571.3 81.94 571.94 81.83C572.25 81.78 572.55 81.72 572.84 81.68C575.3 81.03 577.72 79.97 579.79 78.64C589.6 72.83 598.35 65.52 605.81 56.89C606.44 56.13 607.09 55.35 607.59 54.6C607.83 54.2 607.79 53.78 607.48 53.36C606.8 52.5 605.96 51.99 605.12 51.94C604.42 51.9 603.74 52.18 603.16 52.76C602.62 53.16 602.2 53.59 601.77 54.04C601.43 54.4 601.07 54.77 600.66 55.12C593.23 62.82 584.93 69.32 576.01 74.42C574 75.65 572.37 76.47 570.73 77.06C569.62 77.54 568.7 77.57 568.02 77.12C567.31 76.65 566.94 75.73 566.94 74.38C566.94 72.15 567.48 70.07 568.05 67.88C568.16 67.45 568.27 67.03 568.38 66.59C569.94 60.6 572.12 54.91 575.05 49.19C576.48 46.44 576.18 46.11 574.23 43.96L573.82 43.51C570.69 40.11 565.34 40.36 561.99 42.55C559.75 44.04 558.13 45.42 556.9 46.88C551.87 52.52 548.1 59.32 545.69 67.12C545.12 69.16 544.54 71.57 544.8 74.2C545.15 76.8 546.71 77.72 547.61 78.04C549.08 78.56 550.76 78.21 551.89 77.14C553.21 75.9 554.46 74.58 555.67 73.32C556.48 72.46 557.29 71.61 558.13 70.78C558.53 70.42 558.87 70.02 559.23 69.59C559.94 68.75 560.67 67.89 561.8 67.42L562.18 67.26L562.41 67.6C563.11 68.66 562.86 69.71 562.65 70.56C562.59 70.82 562.52 71.07 562.49 71.32C562.24 72.83 562.24 74.48 562.49 75.97H562.48ZM553.1 67.35L552.82 66.8C552.82 66.8 552.75 66.7 552.71 66.65C552.39 66.27 552.45 65.99 552.56 65.81C554.81 59.49 558.3 53.94 562.92 49.32L563.39 49C564.13 48.33 566.83 46.06 568.05 46.49C568.34 46.59 568.53 46.82 568.58 47.13C568.81 48.75 567.9 49.83 567.1 50.79C566.86 51.07 566.62 51.36 566.41 51.66C563.43 56.2 559.79 60.73 555.32 65.5C554.86 65.96 554.41 66.31 553.9 66.72L553.09 67.37L553.1 67.35ZM567.62 47.43C567.16 47.5 565.83 48.17 564.01 49.79L563.57 50.09C559.26 54.41 555.93 59.64 553.73 65.58C554.05 65.32 554.34 65.07 554.62 64.79C559.05 60.08 562.64 55.59 565.61 51.09C565.84 50.76 566.1 50.45 566.36 50.14C567.09 49.27 567.72 48.51 567.63 47.43H567.62Z" fill="#231F20"/>
<path d="M584.47 117.28C584.86 115.46 585.9 114.03 586.94 112.47C590.06 108.18 593.57 104.02 597.34 100.25C600.85 96.74 603.58 92.71 605.92 88.42C609.82 81.01 613.72 73.6 617.1 66.06C617.62 65.15 618.53 64.11 617.62 62.94H618.01L617.75 62.81C613.85 66.45 609.95 69.96 605.66 72.82C603.97 74.12 602.02 75.03 600.2 76.07C598.9 76.85 597.34 76.85 595.91 76.59C593.44 76.07 591.88 74.38 591.62 71.91C591.49 70.22 591.75 68.66 592.4 67.1C596.43 57.87 602.28 49.81 610.34 43.57C612.42 41.88 614.89 40.45 617.75 40.32C621.52 40.19 624.64 40.97 626.07 44.87C626.46 46.04 627.37 46.17 628.28 46.56C630.88 47.73 631.4 48.9 630.62 51.5C630.23 53.32 629.45 55.01 628.8 56.57C626.46 62.16 623.99 67.62 621.52 73.21C621.13 74.12 620.22 75.03 620.61 76.46C622.17 75.94 623.21 74.64 624.38 73.6C628.28 70.09 640.37 57.74 644.66 54.75C645.57 54.1 646.48 53.32 647.39 52.8C648.82 52.15 650.25 52.41 651.42 53.58C652.07 54.23 652.2 55.14 651.68 55.92C651.16 56.57 650.64 57.09 649.99 57.61C639.46 66.19 621.65 84.52 612.03 94.14C609.56 96.61 607.48 99.21 605.79 102.2C602.93 107.01 599.94 111.69 596.43 115.98C595.13 117.67 593.57 119.1 592.01 120.53C590.97 121.7 589.54 122.09 587.98 121.96C585.38 121.83 583.95 119.88 584.47 117.28ZM604.49 65.28C608.52 61.64 612.42 58 616.58 54.62C619.05 52.54 619.96 49.94 620.48 47.08C620.74 46.04 619.96 45.39 619.05 45.65C616.45 46.56 614.24 48.25 612.16 50.2C607.22 54.88 603.19 60.34 600.07 66.45C599.68 66.97 599.29 67.62 599.94 68.4C601.63 67.62 603.19 66.45 604.49 65.28Z" fill="#231F20"/>
<path d="M588.54 122.48C588.34 122.48 588.15 122.48 587.95 122.45C586.59 122.38 585.44 121.83 584.71 120.9C583.96 119.93 583.7 118.61 583.99 117.17C584.37 115.41 585.28 114.04 586.26 112.59L586.54 112.18C589.79 107.71 593.31 103.58 597 99.88C600.11 96.77 602.89 92.94 605.5 88.16C609.34 80.86 613.3 73.34 616.66 65.83C616.76 65.65 616.84 65.52 616.93 65.38C617.34 64.71 617.62 64.22 617.5 63.72C613.96 67.01 610.15 70.42 605.96 73.21C604.73 74.16 603.33 74.92 601.98 75.65C601.47 75.92 600.97 76.2 600.47 76.48C599.27 77.2 597.71 77.4 595.84 77.06C593.13 76.49 591.42 74.62 591.14 71.94C591 70.18 591.27 68.53 591.96 66.88C596.22 57.13 602.3 49.15 610.06 43.15C612.69 41.01 615.21 39.91 617.75 39.8C620.97 39.69 624.9 40.14 626.56 44.68C626.81 45.43 627.29 45.62 628.01 45.89C628.17 45.95 628.34 46.01 628.5 46.08C631.33 47.35 631.98 48.75 631.12 51.62C630.79 53.18 630.17 54.64 629.57 56.05L629.28 56.74C627.49 61.02 625.58 65.31 623.74 69.46L622 73.39C621.9 73.62 621.76 73.87 621.62 74.11C621.32 74.63 621.04 75.13 621.04 75.73C621.86 75.32 622.54 74.66 623.26 73.97C623.53 73.71 623.8 73.45 624.07 73.21C625.35 72.06 627.5 69.96 630 67.53C635.12 62.55 641.49 56.35 644.4 54.32C644.69 54.11 644.99 53.88 645.29 53.65C645.9 53.19 646.53 52.71 647.16 52.34C648.85 51.57 650.48 51.88 651.79 53.2C652.63 54.04 652.76 55.21 652.11 56.17C651.54 56.89 650.99 57.43 650.32 57.97C641.49 65.16 627.66 79.1 617.56 89.27C615.67 91.17 613.93 92.93 612.4 94.46C609.82 97.03 607.81 99.64 606.24 102.41C603.71 106.67 600.61 111.64 596.83 116.26C595.51 117.97 593.91 119.44 592.36 120.86C591.44 121.89 590.13 122.44 588.55 122.44L588.54 122.48ZM584.96 117.38C584.73 118.53 584.92 119.56 585.49 120.29C586.04 121 586.91 121.4 588 121.46C589.55 121.59 590.77 121.16 591.63 120.2C593.18 118.77 594.75 117.33 596.03 115.68C599.78 111.1 602.85 106.17 605.36 101.95C606.97 99.1 609.04 96.43 611.68 93.79C613.21 92.26 614.95 90.5 616.84 88.6C626.95 78.41 640.81 64.45 649.68 57.22C650.3 56.72 650.8 56.23 651.3 55.61C651.65 55.09 651.57 54.43 651.08 53.94C650.07 52.93 648.87 52.69 647.61 53.26C647.07 53.57 646.47 54.03 645.89 54.47C645.58 54.7 645.27 54.94 644.97 55.16C642.12 57.14 635.79 63.31 630.69 68.27C628.18 70.71 626.02 72.82 624.73 73.98C624.46 74.22 624.2 74.47 623.94 74.72C623.03 75.6 622.09 76.51 620.78 76.94L620.28 77.11L620.14 76.6C619.79 75.32 620.32 74.39 620.74 73.65C620.86 73.44 620.98 73.23 621.07 73.02L622.82 69.08C624.66 64.94 626.57 60.65 628.35 56.38L628.64 55.69C629.22 54.32 629.82 52.91 630.14 51.4C630.87 48.97 630.44 48.08 628.08 47.02C627.94 46.96 627.79 46.9 627.64 46.84C626.87 46.55 626 46.22 625.6 45.03C624.45 41.89 622.18 40.67 617.77 40.82C615.46 40.93 613.13 41.95 610.66 43.96C603.03 49.86 597.05 57.72 592.86 67.3C592.24 68.78 592 70.28 592.12 71.87C592.36 74.11 593.74 75.62 596.01 76.1C597.64 76.39 598.93 76.25 599.94 75.64C600.45 75.35 600.96 75.07 601.48 74.79C602.8 74.08 604.16 73.34 605.36 72.42C609.58 69.61 613.39 66.18 616.95 62.88L616.61 62.44H617.43L617.68 62.21L620.14 63.44H618.45C618.72 64.4 618.19 65.26 617.77 65.93C617.69 66.06 617.61 66.18 617.54 66.31C614.18 73.81 610.22 81.33 606.39 88.61C603.71 93.52 600.88 97.43 597.7 100.61C594.04 104.27 590.56 108.36 587.35 112.77L587.08 113.17C586.16 114.54 585.3 115.83 584.96 117.39V117.38ZM599.8 69.01L599.55 68.72C598.59 67.58 599.37 66.54 599.66 66.15C602.79 60.01 606.89 54.49 611.81 49.84C614.38 47.43 616.56 45.99 618.88 45.18C619.53 44.99 620.14 45.13 620.56 45.53C620.98 45.94 621.13 46.55 620.96 47.2C620.5 49.74 619.65 52.68 616.9 55C613.54 57.73 610.43 60.56 607.14 63.55L604.83 65.65C603.25 67.07 601.67 68.15 600.15 68.85L599.8 69.01ZM619.45 46.09C619.37 46.09 619.28 46.1 619.19 46.13C617.04 46.88 614.97 48.25 612.5 50.56C607.67 55.14 603.63 60.56 600.51 66.67C600.17 67.14 600.02 67.43 600.12 67.75C601.43 67.09 602.78 66.14 604.15 64.9L606.46 62.8C609.62 59.93 612.89 56.96 616.26 54.22C618.76 52.12 619.53 49.5 619.98 46.98C620.06 46.64 620.02 46.39 619.86 46.24C619.76 46.14 619.61 46.09 619.44 46.09H619.45Z" fill="#231F20"/>
</svg>
